G04 #@! TF.GenerationSoftware,KiCad,Pcbnew,9.0.0*
G04 #@! TF.CreationDate,2025-03-21T23:08:49+01:00*
G04 #@! TF.ProjectId,QCMAmp,51434d41-6d70-42e6-9b69-6361645f7063,rev?*
G04 #@! TF.SameCoordinates,Original*
G04 #@! TF.FileFunction,Legend,Top*
G04 #@! TF.FilePolarity,Positive*
%FSLAX46Y46*%
G04 Gerber Fmt 4.6, Leading zero omitted, Abs format (unit mm)*
G04 Created by KiCad (PCBNEW 9.0.0) date 2025-03-21 23:08:49*
%MOMM*%
%LPD*%
G01*
G04 APERTURE LIST*
G04 Aperture macros list*
%AMRoundRect*
0 Rectangle with rounded corners*
0 $1 Rounding radius*
0 $2 $3 $4 $5 $6 $7 $8 $9 X,Y pos of 4 corners*
0 Add a 4 corners polygon primitive as box body*
4,1,4,$2,$3,$4,$5,$6,$7,$8,$9,$2,$3,0*
0 Add four circle primitives for the rounded corners*
1,1,$1+$1,$2,$3*
1,1,$1+$1,$4,$5*
1,1,$1+$1,$6,$7*
1,1,$1+$1,$8,$9*
0 Add four rect primitives between the rounded corners*
20,1,$1+$1,$2,$3,$4,$5,0*
20,1,$1+$1,$4,$5,$6,$7,0*
20,1,$1+$1,$6,$7,$8,$9,0*
20,1,$1+$1,$8,$9,$2,$3,0*%
%AMHorizOval*
0 Thick line with rounded ends*
0 $1 width*
0 $2 $3 position (X,Y) of the first rounded end (center of the circle)*
0 $4 $5 position (X,Y) of the second rounded end (center of the circle)*
0 Add line between two ends*
20,1,$1,$2,$3,$4,$5,0*
0 Add two circle primitives to create the rounded ends*
1,1,$1,$2,$3*
1,1,$1,$4,$5*%
%AMFreePoly0*
4,1,6,1.000000,0.000000,0.500000,-0.750000,-0.500000,-0.750000,-0.500000,0.750000,0.500000,0.750000,1.000000,0.000000,1.000000,0.000000,$1*%
%AMFreePoly1*
4,1,6,0.500000,-0.750000,-0.650000,-0.750000,-0.150000,0.000000,-0.650000,0.750000,0.500000,0.750000,0.500000,-0.750000,0.500000,-0.750000,$1*%
G04 Aperture macros list end*
%ADD10C,0.150000*%
%ADD11C,0.300000*%
%ADD12C,0.254000*%
%ADD13C,0.152400*%
%ADD14C,0.120000*%
%ADD15C,0.200000*%
%ADD16R,1.524000X1.524000*%
%ADD17C,1.524000*%
%ADD18C,2.050000*%
%ADD19C,2.250000*%
%ADD20C,3.200000*%
%ADD21C,6.240000*%
%ADD22HorizOval,3.500000X-0.250000X0.433013X0.250000X-0.433013X0*%
%ADD23O,3.500000X4.500000*%
%ADD24HorizOval,3.500000X0.321394X0.383022X-0.321394X-0.383022X0*%
%ADD25HorizOval,3.500000X0.469846X0.171010X-0.469846X-0.171010X0*%
%ADD26HorizOval,3.500000X-0.482963X0.129410X0.482963X-0.129410X0*%
%ADD27HorizOval,3.500000X-0.321394X0.383022X0.321394X-0.383022X0*%
%ADD28HorizOval,3.500000X0.250000X0.433013X-0.250000X-0.433013X0*%
%ADD29FreePoly0,270.000000*%
%ADD30FreePoly1,270.000000*%
%ADD31RoundRect,0.250000X0.400000X0.625000X-0.400000X0.625000X-0.400000X-0.625000X0.400000X-0.625000X0*%
%ADD32RoundRect,0.250000X-1.000000X-0.900000X1.000000X-0.900000X1.000000X0.900000X-1.000000X0.900000X0*%
%ADD33RoundRect,0.250000X0.625000X-0.400000X0.625000X0.400000X-0.625000X0.400000X-0.625000X-0.400000X0*%
%ADD34RoundRect,0.250000X-0.400000X-0.625000X0.400000X-0.625000X0.400000X0.625000X-0.400000X0.625000X0*%
%ADD35C,2.600000*%
%ADD36RoundRect,0.250000X-1.050000X-1.050000X1.050000X-1.050000X1.050000X1.050000X-1.050000X1.050000X0*%
%ADD37RoundRect,0.249999X-1.425001X0.450001X-1.425001X-0.450001X1.425001X-0.450001X1.425001X0.450001X0*%
%ADD38RoundRect,0.250000X0.650000X-0.412500X0.650000X0.412500X-0.650000X0.412500X-0.650000X-0.412500X0*%
%ADD39R,2.600000X2.600000*%
%ADD40RoundRect,0.250000X-0.412500X-0.650000X0.412500X-0.650000X0.412500X0.650000X-0.412500X0.650000X0*%
%ADD41RoundRect,0.250000X0.412500X0.650000X-0.412500X0.650000X-0.412500X-0.650000X0.412500X-0.650000X0*%
%ADD42RoundRect,0.250000X-0.650000X0.412500X-0.650000X-0.412500X0.650000X-0.412500X0.650000X0.412500X0*%
%ADD43RoundRect,0.250000X-0.625000X0.400000X-0.625000X-0.400000X0.625000X-0.400000X0.625000X0.400000X0*%
%ADD44FreePoly0,180.000000*%
%ADD45FreePoly1,180.000000*%
%ADD46C,2.000000*%
G04 APERTURE END LIST*
D10*
X186167969Y-47544819D02*
X186167969Y-46544819D01*
X186596540Y-47544819D02*
X186596540Y-46544819D01*
X186596540Y-46544819D02*
X187110826Y-47544819D01*
X187110826Y-47544819D02*
X187110826Y-46544819D01*
X189739398Y-46692438D02*
X189653684Y-46644819D01*
X189653684Y-46644819D02*
X189525112Y-46644819D01*
X189525112Y-46644819D02*
X189396541Y-46692438D01*
X189396541Y-46692438D02*
X189310826Y-46787676D01*
X189310826Y-46787676D02*
X189267969Y-46882914D01*
X189267969Y-46882914D02*
X189225112Y-47073390D01*
X189225112Y-47073390D02*
X189225112Y-47216247D01*
X189225112Y-47216247D02*
X189267969Y-47406723D01*
X189267969Y-47406723D02*
X189310826Y-47501961D01*
X189310826Y-47501961D02*
X189396541Y-47597200D01*
X189396541Y-47597200D02*
X189525112Y-47644819D01*
X189525112Y-47644819D02*
X189610826Y-47644819D01*
X189610826Y-47644819D02*
X189739398Y-47597200D01*
X189739398Y-47597200D02*
X189782255Y-47549580D01*
X189782255Y-47549580D02*
X189782255Y-47216247D01*
X189782255Y-47216247D02*
X189610826Y-47216247D01*
X190167969Y-47644819D02*
X190167969Y-46644819D01*
X190167969Y-46644819D02*
X190682255Y-47644819D01*
X190682255Y-47644819D02*
X190682255Y-46644819D01*
X191110826Y-47644819D02*
X191110826Y-46644819D01*
X191110826Y-46644819D02*
X191325112Y-46644819D01*
X191325112Y-46644819D02*
X191453683Y-46692438D01*
X191453683Y-46692438D02*
X191539398Y-46787676D01*
X191539398Y-46787676D02*
X191582255Y-46882914D01*
X191582255Y-46882914D02*
X191625112Y-47073390D01*
X191625112Y-47073390D02*
X191625112Y-47216247D01*
X191625112Y-47216247D02*
X191582255Y-47406723D01*
X191582255Y-47406723D02*
X191539398Y-47501961D01*
X191539398Y-47501961D02*
X191453683Y-47597200D01*
X191453683Y-47597200D02*
X191325112Y-47644819D01*
X191325112Y-47644819D02*
X191110826Y-47644819D01*
X78084398Y-46817438D02*
X77998684Y-46769819D01*
X77998684Y-46769819D02*
X77870112Y-46769819D01*
X77870112Y-46769819D02*
X77741541Y-46817438D01*
X77741541Y-46817438D02*
X77655826Y-46912676D01*
X77655826Y-46912676D02*
X77612969Y-47007914D01*
X77612969Y-47007914D02*
X77570112Y-47198390D01*
X77570112Y-47198390D02*
X77570112Y-47341247D01*
X77570112Y-47341247D02*
X77612969Y-47531723D01*
X77612969Y-47531723D02*
X77655826Y-47626961D01*
X77655826Y-47626961D02*
X77741541Y-47722200D01*
X77741541Y-47722200D02*
X77870112Y-47769819D01*
X77870112Y-47769819D02*
X77955826Y-47769819D01*
X77955826Y-47769819D02*
X78084398Y-47722200D01*
X78084398Y-47722200D02*
X78127255Y-47674580D01*
X78127255Y-47674580D02*
X78127255Y-47341247D01*
X78127255Y-47341247D02*
X77955826Y-47341247D01*
X78512969Y-47769819D02*
X78512969Y-46769819D01*
X78512969Y-46769819D02*
X79027255Y-47769819D01*
X79027255Y-47769819D02*
X79027255Y-46769819D01*
X79455826Y-47769819D02*
X79455826Y-46769819D01*
X79455826Y-46769819D02*
X79670112Y-46769819D01*
X79670112Y-46769819D02*
X79798683Y-46817438D01*
X79798683Y-46817438D02*
X79884398Y-46912676D01*
X79884398Y-46912676D02*
X79927255Y-47007914D01*
X79927255Y-47007914D02*
X79970112Y-47198390D01*
X79970112Y-47198390D02*
X79970112Y-47341247D01*
X79970112Y-47341247D02*
X79927255Y-47531723D01*
X79927255Y-47531723D02*
X79884398Y-47626961D01*
X79884398Y-47626961D02*
X79798683Y-47722200D01*
X79798683Y-47722200D02*
X79670112Y-47769819D01*
X79670112Y-47769819D02*
X79455826Y-47769819D01*
X90784398Y-46669819D02*
X90955826Y-46669819D01*
X90955826Y-46669819D02*
X91041541Y-46717438D01*
X91041541Y-46717438D02*
X91127255Y-46812676D01*
X91127255Y-46812676D02*
X91170112Y-47003152D01*
X91170112Y-47003152D02*
X91170112Y-47336485D01*
X91170112Y-47336485D02*
X91127255Y-47526961D01*
X91127255Y-47526961D02*
X91041541Y-47622200D01*
X91041541Y-47622200D02*
X90955826Y-47669819D01*
X90955826Y-47669819D02*
X90784398Y-47669819D01*
X90784398Y-47669819D02*
X90698684Y-47622200D01*
X90698684Y-47622200D02*
X90612969Y-47526961D01*
X90612969Y-47526961D02*
X90570112Y-47336485D01*
X90570112Y-47336485D02*
X90570112Y-47003152D01*
X90570112Y-47003152D02*
X90612969Y-46812676D01*
X90612969Y-46812676D02*
X90698684Y-46717438D01*
X90698684Y-46717438D02*
X90784398Y-46669819D01*
X91555826Y-46669819D02*
X91555826Y-47479342D01*
X91555826Y-47479342D02*
X91598683Y-47574580D01*
X91598683Y-47574580D02*
X91641541Y-47622200D01*
X91641541Y-47622200D02*
X91727255Y-47669819D01*
X91727255Y-47669819D02*
X91898683Y-47669819D01*
X91898683Y-47669819D02*
X91984398Y-47622200D01*
X91984398Y-47622200D02*
X92027255Y-47574580D01*
X92027255Y-47574580D02*
X92070112Y-47479342D01*
X92070112Y-47479342D02*
X92070112Y-46669819D01*
X92370112Y-46669819D02*
X92884398Y-46669819D01*
X92627255Y-47669819D02*
X92627255Y-46669819D01*
X92970112Y-47765057D02*
X93655826Y-47765057D01*
X94298683Y-47669819D02*
X93870111Y-47669819D01*
X93870111Y-47669819D02*
X93870111Y-46669819D01*
X94470111Y-46669819D02*
X94984397Y-46669819D01*
X94727254Y-47669819D02*
X94727254Y-46669819D01*
X129141541Y-124569819D02*
X128712969Y-124569819D01*
X128712969Y-124569819D02*
X128712969Y-123569819D01*
X129312969Y-123569819D02*
X129827255Y-123569819D01*
X129570112Y-124569819D02*
X129570112Y-123569819D01*
X129912969Y-124665057D02*
X130598683Y-124665057D01*
X130684397Y-123569819D02*
X130984397Y-124569819D01*
X130984397Y-124569819D02*
X131284397Y-123569819D01*
X131584397Y-124188866D02*
X132270112Y-124188866D01*
X104684398Y-46817438D02*
X104598684Y-46769819D01*
X104598684Y-46769819D02*
X104470112Y-46769819D01*
X104470112Y-46769819D02*
X104341541Y-46817438D01*
X104341541Y-46817438D02*
X104255826Y-46912676D01*
X104255826Y-46912676D02*
X104212969Y-47007914D01*
X104212969Y-47007914D02*
X104170112Y-47198390D01*
X104170112Y-47198390D02*
X104170112Y-47341247D01*
X104170112Y-47341247D02*
X104212969Y-47531723D01*
X104212969Y-47531723D02*
X104255826Y-47626961D01*
X104255826Y-47626961D02*
X104341541Y-47722200D01*
X104341541Y-47722200D02*
X104470112Y-47769819D01*
X104470112Y-47769819D02*
X104555826Y-47769819D01*
X104555826Y-47769819D02*
X104684398Y-47722200D01*
X104684398Y-47722200D02*
X104727255Y-47674580D01*
X104727255Y-47674580D02*
X104727255Y-47341247D01*
X104727255Y-47341247D02*
X104555826Y-47341247D01*
X105112969Y-47769819D02*
X105112969Y-46769819D01*
X105112969Y-46769819D02*
X105627255Y-47769819D01*
X105627255Y-47769819D02*
X105627255Y-46769819D01*
X106055826Y-47769819D02*
X106055826Y-46769819D01*
X106055826Y-46769819D02*
X106270112Y-46769819D01*
X106270112Y-46769819D02*
X106398683Y-46817438D01*
X106398683Y-46817438D02*
X106484398Y-46912676D01*
X106484398Y-46912676D02*
X106527255Y-47007914D01*
X106527255Y-47007914D02*
X106570112Y-47198390D01*
X106570112Y-47198390D02*
X106570112Y-47341247D01*
X106570112Y-47341247D02*
X106527255Y-47531723D01*
X106527255Y-47531723D02*
X106484398Y-47626961D01*
X106484398Y-47626961D02*
X106398683Y-47722200D01*
X106398683Y-47722200D02*
X106270112Y-47769819D01*
X106270112Y-47769819D02*
X106055826Y-47769819D01*
X151716541Y-124619819D02*
X151287969Y-124619819D01*
X151287969Y-124619819D02*
X151287969Y-123619819D01*
X152016540Y-124096009D02*
X152316540Y-124096009D01*
X152445112Y-124619819D02*
X152016540Y-124619819D01*
X152016540Y-124619819D02*
X152016540Y-123619819D01*
X152016540Y-123619819D02*
X152445112Y-123619819D01*
X152830826Y-124619819D02*
X152830826Y-123619819D01*
X152830826Y-123619819D02*
X153045112Y-123619819D01*
X153045112Y-123619819D02*
X153173683Y-123667438D01*
X153173683Y-123667438D02*
X153259398Y-123762676D01*
X153259398Y-123762676D02*
X153302255Y-123857914D01*
X153302255Y-123857914D02*
X153345112Y-124048390D01*
X153345112Y-124048390D02*
X153345112Y-124191247D01*
X153345112Y-124191247D02*
X153302255Y-124381723D01*
X153302255Y-124381723D02*
X153259398Y-124476961D01*
X153259398Y-124476961D02*
X153173683Y-124572200D01*
X153173683Y-124572200D02*
X153045112Y-124619819D01*
X153045112Y-124619819D02*
X152830826Y-124619819D01*
X169962969Y-124619819D02*
X169962969Y-123619819D01*
X169962969Y-123619819D02*
X170305826Y-123619819D01*
X170305826Y-123619819D02*
X170391541Y-123667438D01*
X170391541Y-123667438D02*
X170434398Y-123715057D01*
X170434398Y-123715057D02*
X170477255Y-123810295D01*
X170477255Y-123810295D02*
X170477255Y-123953152D01*
X170477255Y-123953152D02*
X170434398Y-124048390D01*
X170434398Y-124048390D02*
X170391541Y-124096009D01*
X170391541Y-124096009D02*
X170305826Y-124143628D01*
X170305826Y-124143628D02*
X169962969Y-124143628D01*
X170820112Y-124334104D02*
X171248684Y-124334104D01*
X170734398Y-124619819D02*
X171034398Y-123619819D01*
X171034398Y-123619819D02*
X171334398Y-124619819D01*
X171420113Y-124715057D02*
X172105827Y-124715057D01*
X172191541Y-123619819D02*
X172491541Y-124619819D01*
X172491541Y-124619819D02*
X172791541Y-123619819D01*
X173091541Y-124238866D02*
X173777256Y-124238866D01*
X173434398Y-124619819D02*
X173434398Y-123857914D01*
D11*
X98054510Y-122981185D02*
X97911653Y-122909757D01*
X97911653Y-122909757D02*
X97768796Y-122766900D01*
X97768796Y-122766900D02*
X97554510Y-122552614D01*
X97554510Y-122552614D02*
X97411653Y-122481185D01*
X97411653Y-122481185D02*
X97268796Y-122481185D01*
X97340225Y-122838328D02*
X97197368Y-122766900D01*
X97197368Y-122766900D02*
X97054510Y-122624042D01*
X97054510Y-122624042D02*
X96983082Y-122338328D01*
X96983082Y-122338328D02*
X96983082Y-121838328D01*
X96983082Y-121838328D02*
X97054510Y-121552614D01*
X97054510Y-121552614D02*
X97197368Y-121409757D01*
X97197368Y-121409757D02*
X97340225Y-121338328D01*
X97340225Y-121338328D02*
X97625939Y-121338328D01*
X97625939Y-121338328D02*
X97768796Y-121409757D01*
X97768796Y-121409757D02*
X97911653Y-121552614D01*
X97911653Y-121552614D02*
X97983082Y-121838328D01*
X97983082Y-121838328D02*
X97983082Y-122338328D01*
X97983082Y-122338328D02*
X97911653Y-122624042D01*
X97911653Y-122624042D02*
X97768796Y-122766900D01*
X97768796Y-122766900D02*
X97625939Y-122838328D01*
X97625939Y-122838328D02*
X97340225Y-122838328D01*
X99483082Y-122695471D02*
X99411654Y-122766900D01*
X99411654Y-122766900D02*
X99197368Y-122838328D01*
X99197368Y-122838328D02*
X99054511Y-122838328D01*
X99054511Y-122838328D02*
X98840225Y-122766900D01*
X98840225Y-122766900D02*
X98697368Y-122624042D01*
X98697368Y-122624042D02*
X98625939Y-122481185D01*
X98625939Y-122481185D02*
X98554511Y-122195471D01*
X98554511Y-122195471D02*
X98554511Y-121981185D01*
X98554511Y-121981185D02*
X98625939Y-121695471D01*
X98625939Y-121695471D02*
X98697368Y-121552614D01*
X98697368Y-121552614D02*
X98840225Y-121409757D01*
X98840225Y-121409757D02*
X99054511Y-121338328D01*
X99054511Y-121338328D02*
X99197368Y-121338328D01*
X99197368Y-121338328D02*
X99411654Y-121409757D01*
X99411654Y-121409757D02*
X99483082Y-121481185D01*
X100125939Y-122838328D02*
X100125939Y-121338328D01*
X100125939Y-121338328D02*
X100625939Y-122409757D01*
X100625939Y-122409757D02*
X101125939Y-121338328D01*
X101125939Y-121338328D02*
X101125939Y-122838328D01*
X102911654Y-122409757D02*
X103625940Y-122409757D01*
X102768797Y-122838328D02*
X103268797Y-121338328D01*
X103268797Y-121338328D02*
X103768797Y-122838328D01*
X104268796Y-122838328D02*
X104268796Y-121838328D01*
X104268796Y-121981185D02*
X104340225Y-121909757D01*
X104340225Y-121909757D02*
X104483082Y-121838328D01*
X104483082Y-121838328D02*
X104697368Y-121838328D01*
X104697368Y-121838328D02*
X104840225Y-121909757D01*
X104840225Y-121909757D02*
X104911654Y-122052614D01*
X104911654Y-122052614D02*
X104911654Y-122838328D01*
X104911654Y-122052614D02*
X104983082Y-121909757D01*
X104983082Y-121909757D02*
X105125939Y-121838328D01*
X105125939Y-121838328D02*
X105340225Y-121838328D01*
X105340225Y-121838328D02*
X105483082Y-121909757D01*
X105483082Y-121909757D02*
X105554511Y-122052614D01*
X105554511Y-122052614D02*
X105554511Y-122838328D01*
X106268796Y-121838328D02*
X106268796Y-123338328D01*
X106268796Y-121909757D02*
X106411654Y-121838328D01*
X106411654Y-121838328D02*
X106697368Y-121838328D01*
X106697368Y-121838328D02*
X106840225Y-121909757D01*
X106840225Y-121909757D02*
X106911654Y-121981185D01*
X106911654Y-121981185D02*
X106983082Y-122124042D01*
X106983082Y-122124042D02*
X106983082Y-122552614D01*
X106983082Y-122552614D02*
X106911654Y-122695471D01*
X106911654Y-122695471D02*
X106840225Y-122766900D01*
X106840225Y-122766900D02*
X106697368Y-122838328D01*
X106697368Y-122838328D02*
X106411654Y-122838328D01*
X106411654Y-122838328D02*
X106268796Y-122766900D01*
X107840225Y-122838328D02*
X107697368Y-122766900D01*
X107697368Y-122766900D02*
X107625939Y-122624042D01*
X107625939Y-122624042D02*
X107625939Y-121338328D01*
X108411653Y-122838328D02*
X108411653Y-121838328D01*
X108411653Y-121338328D02*
X108340225Y-121409757D01*
X108340225Y-121409757D02*
X108411653Y-121481185D01*
X108411653Y-121481185D02*
X108483082Y-121409757D01*
X108483082Y-121409757D02*
X108411653Y-121338328D01*
X108411653Y-121338328D02*
X108411653Y-121481185D01*
X108911654Y-121838328D02*
X109483082Y-121838328D01*
X109125939Y-122838328D02*
X109125939Y-121552614D01*
X109125939Y-121552614D02*
X109197368Y-121409757D01*
X109197368Y-121409757D02*
X109340225Y-121338328D01*
X109340225Y-121338328D02*
X109483082Y-121338328D01*
X109983082Y-122838328D02*
X109983082Y-121838328D01*
X109983082Y-121338328D02*
X109911654Y-121409757D01*
X109911654Y-121409757D02*
X109983082Y-121481185D01*
X109983082Y-121481185D02*
X110054511Y-121409757D01*
X110054511Y-121409757D02*
X109983082Y-121338328D01*
X109983082Y-121338328D02*
X109983082Y-121481185D01*
X111268797Y-122766900D02*
X111125940Y-122838328D01*
X111125940Y-122838328D02*
X110840226Y-122838328D01*
X110840226Y-122838328D02*
X110697368Y-122766900D01*
X110697368Y-122766900D02*
X110625940Y-122624042D01*
X110625940Y-122624042D02*
X110625940Y-122052614D01*
X110625940Y-122052614D02*
X110697368Y-121909757D01*
X110697368Y-121909757D02*
X110840226Y-121838328D01*
X110840226Y-121838328D02*
X111125940Y-121838328D01*
X111125940Y-121838328D02*
X111268797Y-121909757D01*
X111268797Y-121909757D02*
X111340226Y-122052614D01*
X111340226Y-122052614D02*
X111340226Y-122195471D01*
X111340226Y-122195471D02*
X110625940Y-122338328D01*
X111983082Y-122838328D02*
X111983082Y-121838328D01*
X111983082Y-122124042D02*
X112054511Y-121981185D01*
X112054511Y-121981185D02*
X112125940Y-121909757D01*
X112125940Y-121909757D02*
X112268797Y-121838328D01*
X112268797Y-121838328D02*
X112411654Y-121838328D01*
D10*
X82284398Y-46669819D02*
X82455826Y-46669819D01*
X82455826Y-46669819D02*
X82541541Y-46717438D01*
X82541541Y-46717438D02*
X82627255Y-46812676D01*
X82627255Y-46812676D02*
X82670112Y-47003152D01*
X82670112Y-47003152D02*
X82670112Y-47336485D01*
X82670112Y-47336485D02*
X82627255Y-47526961D01*
X82627255Y-47526961D02*
X82541541Y-47622200D01*
X82541541Y-47622200D02*
X82455826Y-47669819D01*
X82455826Y-47669819D02*
X82284398Y-47669819D01*
X82284398Y-47669819D02*
X82198684Y-47622200D01*
X82198684Y-47622200D02*
X82112969Y-47526961D01*
X82112969Y-47526961D02*
X82070112Y-47336485D01*
X82070112Y-47336485D02*
X82070112Y-47003152D01*
X82070112Y-47003152D02*
X82112969Y-46812676D01*
X82112969Y-46812676D02*
X82198684Y-46717438D01*
X82198684Y-46717438D02*
X82284398Y-46669819D01*
X83055826Y-46669819D02*
X83055826Y-47479342D01*
X83055826Y-47479342D02*
X83098683Y-47574580D01*
X83098683Y-47574580D02*
X83141541Y-47622200D01*
X83141541Y-47622200D02*
X83227255Y-47669819D01*
X83227255Y-47669819D02*
X83398683Y-47669819D01*
X83398683Y-47669819D02*
X83484398Y-47622200D01*
X83484398Y-47622200D02*
X83527255Y-47574580D01*
X83527255Y-47574580D02*
X83570112Y-47479342D01*
X83570112Y-47479342D02*
X83570112Y-46669819D01*
X83870112Y-46669819D02*
X84384398Y-46669819D01*
X84127255Y-47669819D02*
X84127255Y-46669819D01*
X84470112Y-47765057D02*
X85155826Y-47765057D01*
X85798683Y-47669819D02*
X85370111Y-47669819D01*
X85370111Y-47669819D02*
X85370111Y-46669819D01*
X85970111Y-46669819D02*
X86484397Y-46669819D01*
X86227254Y-47669819D02*
X86227254Y-46669819D01*
X134541541Y-124569819D02*
X134112969Y-124569819D01*
X134112969Y-124569819D02*
X134112969Y-123569819D01*
X134712969Y-123569819D02*
X135227255Y-123569819D01*
X134970112Y-124569819D02*
X134970112Y-123569819D01*
X135312969Y-124665057D02*
X135998683Y-124665057D01*
X136084397Y-123569819D02*
X136384397Y-124569819D01*
X136384397Y-124569819D02*
X136684397Y-123569819D01*
X136984397Y-124188866D02*
X137670112Y-124188866D01*
X137327254Y-124569819D02*
X137327254Y-123807914D01*
X155959398Y-123667438D02*
X155873684Y-123619819D01*
X155873684Y-123619819D02*
X155745112Y-123619819D01*
X155745112Y-123619819D02*
X155616541Y-123667438D01*
X155616541Y-123667438D02*
X155530826Y-123762676D01*
X155530826Y-123762676D02*
X155487969Y-123857914D01*
X155487969Y-123857914D02*
X155445112Y-124048390D01*
X155445112Y-124048390D02*
X155445112Y-124191247D01*
X155445112Y-124191247D02*
X155487969Y-124381723D01*
X155487969Y-124381723D02*
X155530826Y-124476961D01*
X155530826Y-124476961D02*
X155616541Y-124572200D01*
X155616541Y-124572200D02*
X155745112Y-124619819D01*
X155745112Y-124619819D02*
X155830826Y-124619819D01*
X155830826Y-124619819D02*
X155959398Y-124572200D01*
X155959398Y-124572200D02*
X156002255Y-124524580D01*
X156002255Y-124524580D02*
X156002255Y-124191247D01*
X156002255Y-124191247D02*
X155830826Y-124191247D01*
X156387969Y-124619819D02*
X156387969Y-123619819D01*
X156387969Y-123619819D02*
X156902255Y-124619819D01*
X156902255Y-124619819D02*
X156902255Y-123619819D01*
X157330826Y-124619819D02*
X157330826Y-123619819D01*
X157330826Y-123619819D02*
X157545112Y-123619819D01*
X157545112Y-123619819D02*
X157673683Y-123667438D01*
X157673683Y-123667438D02*
X157759398Y-123762676D01*
X157759398Y-123762676D02*
X157802255Y-123857914D01*
X157802255Y-123857914D02*
X157845112Y-124048390D01*
X157845112Y-124048390D02*
X157845112Y-124191247D01*
X157845112Y-124191247D02*
X157802255Y-124381723D01*
X157802255Y-124381723D02*
X157759398Y-124476961D01*
X157759398Y-124476961D02*
X157673683Y-124572200D01*
X157673683Y-124572200D02*
X157545112Y-124619819D01*
X157545112Y-124619819D02*
X157330826Y-124619819D01*
X124184398Y-46817438D02*
X124098684Y-46769819D01*
X124098684Y-46769819D02*
X123970112Y-46769819D01*
X123970112Y-46769819D02*
X123841541Y-46817438D01*
X123841541Y-46817438D02*
X123755826Y-46912676D01*
X123755826Y-46912676D02*
X123712969Y-47007914D01*
X123712969Y-47007914D02*
X123670112Y-47198390D01*
X123670112Y-47198390D02*
X123670112Y-47341247D01*
X123670112Y-47341247D02*
X123712969Y-47531723D01*
X123712969Y-47531723D02*
X123755826Y-47626961D01*
X123755826Y-47626961D02*
X123841541Y-47722200D01*
X123841541Y-47722200D02*
X123970112Y-47769819D01*
X123970112Y-47769819D02*
X124055826Y-47769819D01*
X124055826Y-47769819D02*
X124184398Y-47722200D01*
X124184398Y-47722200D02*
X124227255Y-47674580D01*
X124227255Y-47674580D02*
X124227255Y-47341247D01*
X124227255Y-47341247D02*
X124055826Y-47341247D01*
X124612969Y-47769819D02*
X124612969Y-46769819D01*
X124612969Y-46769819D02*
X125127255Y-47769819D01*
X125127255Y-47769819D02*
X125127255Y-46769819D01*
X125555826Y-47769819D02*
X125555826Y-46769819D01*
X125555826Y-46769819D02*
X125770112Y-46769819D01*
X125770112Y-46769819D02*
X125898683Y-46817438D01*
X125898683Y-46817438D02*
X125984398Y-46912676D01*
X125984398Y-46912676D02*
X126027255Y-47007914D01*
X126027255Y-47007914D02*
X126070112Y-47198390D01*
X126070112Y-47198390D02*
X126070112Y-47341247D01*
X126070112Y-47341247D02*
X126027255Y-47531723D01*
X126027255Y-47531723D02*
X125984398Y-47626961D01*
X125984398Y-47626961D02*
X125898683Y-47722200D01*
X125898683Y-47722200D02*
X125770112Y-47769819D01*
X125770112Y-47769819D02*
X125555826Y-47769819D01*
X175162969Y-124619819D02*
X175162969Y-123619819D01*
X175162969Y-123619819D02*
X175505826Y-123619819D01*
X175505826Y-123619819D02*
X175591541Y-123667438D01*
X175591541Y-123667438D02*
X175634398Y-123715057D01*
X175634398Y-123715057D02*
X175677255Y-123810295D01*
X175677255Y-123810295D02*
X175677255Y-123953152D01*
X175677255Y-123953152D02*
X175634398Y-124048390D01*
X175634398Y-124048390D02*
X175591541Y-124096009D01*
X175591541Y-124096009D02*
X175505826Y-124143628D01*
X175505826Y-124143628D02*
X175162969Y-124143628D01*
X176020112Y-124334104D02*
X176448684Y-124334104D01*
X175934398Y-124619819D02*
X176234398Y-123619819D01*
X176234398Y-123619819D02*
X176534398Y-124619819D01*
X176620113Y-124715057D02*
X177305827Y-124715057D01*
X177391541Y-123619819D02*
X177691541Y-124619819D01*
X177691541Y-124619819D02*
X177991541Y-123619819D01*
X178291541Y-124238866D02*
X178977256Y-124238866D01*
X97484398Y-46817438D02*
X97398684Y-46769819D01*
X97398684Y-46769819D02*
X97270112Y-46769819D01*
X97270112Y-46769819D02*
X97141541Y-46817438D01*
X97141541Y-46817438D02*
X97055826Y-46912676D01*
X97055826Y-46912676D02*
X97012969Y-47007914D01*
X97012969Y-47007914D02*
X96970112Y-47198390D01*
X96970112Y-47198390D02*
X96970112Y-47341247D01*
X96970112Y-47341247D02*
X97012969Y-47531723D01*
X97012969Y-47531723D02*
X97055826Y-47626961D01*
X97055826Y-47626961D02*
X97141541Y-47722200D01*
X97141541Y-47722200D02*
X97270112Y-47769819D01*
X97270112Y-47769819D02*
X97355826Y-47769819D01*
X97355826Y-47769819D02*
X97484398Y-47722200D01*
X97484398Y-47722200D02*
X97527255Y-47674580D01*
X97527255Y-47674580D02*
X97527255Y-47341247D01*
X97527255Y-47341247D02*
X97355826Y-47341247D01*
X97912969Y-47769819D02*
X97912969Y-46769819D01*
X97912969Y-46769819D02*
X98427255Y-47769819D01*
X98427255Y-47769819D02*
X98427255Y-46769819D01*
X98855826Y-47769819D02*
X98855826Y-46769819D01*
X98855826Y-46769819D02*
X99070112Y-46769819D01*
X99070112Y-46769819D02*
X99198683Y-46817438D01*
X99198683Y-46817438D02*
X99284398Y-46912676D01*
X99284398Y-46912676D02*
X99327255Y-47007914D01*
X99327255Y-47007914D02*
X99370112Y-47198390D01*
X99370112Y-47198390D02*
X99370112Y-47341247D01*
X99370112Y-47341247D02*
X99327255Y-47531723D01*
X99327255Y-47531723D02*
X99284398Y-47626961D01*
X99284398Y-47626961D02*
X99198683Y-47722200D01*
X99198683Y-47722200D02*
X99070112Y-47769819D01*
X99070112Y-47769819D02*
X98855826Y-47769819D01*
X108584398Y-46669819D02*
X108755826Y-46669819D01*
X108755826Y-46669819D02*
X108841541Y-46717438D01*
X108841541Y-46717438D02*
X108927255Y-46812676D01*
X108927255Y-46812676D02*
X108970112Y-47003152D01*
X108970112Y-47003152D02*
X108970112Y-47336485D01*
X108970112Y-47336485D02*
X108927255Y-47526961D01*
X108927255Y-47526961D02*
X108841541Y-47622200D01*
X108841541Y-47622200D02*
X108755826Y-47669819D01*
X108755826Y-47669819D02*
X108584398Y-47669819D01*
X108584398Y-47669819D02*
X108498684Y-47622200D01*
X108498684Y-47622200D02*
X108412969Y-47526961D01*
X108412969Y-47526961D02*
X108370112Y-47336485D01*
X108370112Y-47336485D02*
X108370112Y-47003152D01*
X108370112Y-47003152D02*
X108412969Y-46812676D01*
X108412969Y-46812676D02*
X108498684Y-46717438D01*
X108498684Y-46717438D02*
X108584398Y-46669819D01*
X109355826Y-46669819D02*
X109355826Y-47479342D01*
X109355826Y-47479342D02*
X109398683Y-47574580D01*
X109398683Y-47574580D02*
X109441541Y-47622200D01*
X109441541Y-47622200D02*
X109527255Y-47669819D01*
X109527255Y-47669819D02*
X109698683Y-47669819D01*
X109698683Y-47669819D02*
X109784398Y-47622200D01*
X109784398Y-47622200D02*
X109827255Y-47574580D01*
X109827255Y-47574580D02*
X109870112Y-47479342D01*
X109870112Y-47479342D02*
X109870112Y-46669819D01*
X110170112Y-46669819D02*
X110684398Y-46669819D01*
X110427255Y-47669819D02*
X110427255Y-46669819D01*
X110770112Y-47765057D02*
X111455826Y-47765057D01*
X111670111Y-47669819D02*
X111670111Y-46669819D01*
X111670111Y-46669819D02*
X112012968Y-46669819D01*
X112012968Y-46669819D02*
X112098683Y-46717438D01*
X112098683Y-46717438D02*
X112141540Y-46765057D01*
X112141540Y-46765057D02*
X112184397Y-46860295D01*
X112184397Y-46860295D02*
X112184397Y-47003152D01*
X112184397Y-47003152D02*
X112141540Y-47098390D01*
X112141540Y-47098390D02*
X112098683Y-47146009D01*
X112098683Y-47146009D02*
X112012968Y-47193628D01*
X112012968Y-47193628D02*
X111670111Y-47193628D01*
X112527254Y-47384104D02*
X112955826Y-47384104D01*
X112441540Y-47669819D02*
X112741540Y-46669819D01*
X112741540Y-46669819D02*
X113041540Y-47669819D01*
X117384398Y-46669819D02*
X117555826Y-46669819D01*
X117555826Y-46669819D02*
X117641541Y-46717438D01*
X117641541Y-46717438D02*
X117727255Y-46812676D01*
X117727255Y-46812676D02*
X117770112Y-47003152D01*
X117770112Y-47003152D02*
X117770112Y-47336485D01*
X117770112Y-47336485D02*
X117727255Y-47526961D01*
X117727255Y-47526961D02*
X117641541Y-47622200D01*
X117641541Y-47622200D02*
X117555826Y-47669819D01*
X117555826Y-47669819D02*
X117384398Y-47669819D01*
X117384398Y-47669819D02*
X117298684Y-47622200D01*
X117298684Y-47622200D02*
X117212969Y-47526961D01*
X117212969Y-47526961D02*
X117170112Y-47336485D01*
X117170112Y-47336485D02*
X117170112Y-47003152D01*
X117170112Y-47003152D02*
X117212969Y-46812676D01*
X117212969Y-46812676D02*
X117298684Y-46717438D01*
X117298684Y-46717438D02*
X117384398Y-46669819D01*
X118155826Y-46669819D02*
X118155826Y-47479342D01*
X118155826Y-47479342D02*
X118198683Y-47574580D01*
X118198683Y-47574580D02*
X118241541Y-47622200D01*
X118241541Y-47622200D02*
X118327255Y-47669819D01*
X118327255Y-47669819D02*
X118498683Y-47669819D01*
X118498683Y-47669819D02*
X118584398Y-47622200D01*
X118584398Y-47622200D02*
X118627255Y-47574580D01*
X118627255Y-47574580D02*
X118670112Y-47479342D01*
X118670112Y-47479342D02*
X118670112Y-46669819D01*
X118970112Y-46669819D02*
X119484398Y-46669819D01*
X119227255Y-47669819D02*
X119227255Y-46669819D01*
X119570112Y-47765057D02*
X120255826Y-47765057D01*
X120470111Y-47669819D02*
X120470111Y-46669819D01*
X120470111Y-46669819D02*
X120812968Y-46669819D01*
X120812968Y-46669819D02*
X120898683Y-46717438D01*
X120898683Y-46717438D02*
X120941540Y-46765057D01*
X120941540Y-46765057D02*
X120984397Y-46860295D01*
X120984397Y-46860295D02*
X120984397Y-47003152D01*
X120984397Y-47003152D02*
X120941540Y-47098390D01*
X120941540Y-47098390D02*
X120898683Y-47146009D01*
X120898683Y-47146009D02*
X120812968Y-47193628D01*
X120812968Y-47193628D02*
X120470111Y-47193628D01*
X121327254Y-47384104D02*
X121755826Y-47384104D01*
X121241540Y-47669819D02*
X121541540Y-46669819D01*
X121541540Y-46669819D02*
X121841540Y-47669819D01*
X174732969Y-47669819D02*
X174732969Y-46669819D01*
X175161540Y-47669819D02*
X175161540Y-46669819D01*
X175161540Y-46669819D02*
X175675826Y-47669819D01*
X175675826Y-47669819D02*
X175675826Y-46669819D01*
X92961904Y-104040680D02*
X92961904Y-103231157D01*
X92961904Y-103231157D02*
X92914285Y-103135919D01*
X92914285Y-103135919D02*
X92866666Y-103088300D01*
X92866666Y-103088300D02*
X92771428Y-103040680D01*
X92771428Y-103040680D02*
X92580952Y-103040680D01*
X92580952Y-103040680D02*
X92485714Y-103088300D01*
X92485714Y-103088300D02*
X92438095Y-103135919D01*
X92438095Y-103135919D02*
X92390476Y-103231157D01*
X92390476Y-103231157D02*
X92390476Y-104040680D01*
X91961904Y-103945442D02*
X91914285Y-103993061D01*
X91914285Y-103993061D02*
X91819047Y-104040680D01*
X91819047Y-104040680D02*
X91580952Y-104040680D01*
X91580952Y-104040680D02*
X91485714Y-103993061D01*
X91485714Y-103993061D02*
X91438095Y-103945442D01*
X91438095Y-103945442D02*
X91390476Y-103850204D01*
X91390476Y-103850204D02*
X91390476Y-103754966D01*
X91390476Y-103754966D02*
X91438095Y-103612109D01*
X91438095Y-103612109D02*
X92009523Y-103040680D01*
X92009523Y-103040680D02*
X91390476Y-103040680D01*
X174906666Y-56664819D02*
X174906666Y-57379104D01*
X174906666Y-57379104D02*
X174859047Y-57521961D01*
X174859047Y-57521961D02*
X174763809Y-57617200D01*
X174763809Y-57617200D02*
X174620952Y-57664819D01*
X174620952Y-57664819D02*
X174525714Y-57664819D01*
X175287619Y-56664819D02*
X175954285Y-56664819D01*
X175954285Y-56664819D02*
X175525714Y-57664819D01*
D12*
X154332380Y-78804318D02*
X154332380Y-79832413D01*
X154332380Y-79832413D02*
X154392857Y-79953365D01*
X154392857Y-79953365D02*
X154453333Y-80013842D01*
X154453333Y-80013842D02*
X154574285Y-80074318D01*
X154574285Y-80074318D02*
X154816190Y-80074318D01*
X154816190Y-80074318D02*
X154937142Y-80013842D01*
X154937142Y-80013842D02*
X154997619Y-79953365D01*
X154997619Y-79953365D02*
X155058095Y-79832413D01*
X155058095Y-79832413D02*
X155058095Y-78804318D01*
X156328095Y-80074318D02*
X155602380Y-80074318D01*
X155965237Y-80074318D02*
X155965237Y-78804318D01*
X155965237Y-78804318D02*
X155844285Y-78985746D01*
X155844285Y-78985746D02*
X155723333Y-79106699D01*
X155723333Y-79106699D02*
X155602380Y-79167175D01*
D10*
X183679819Y-70283333D02*
X184394104Y-70283333D01*
X184394104Y-70283333D02*
X184536961Y-70330952D01*
X184536961Y-70330952D02*
X184632200Y-70426190D01*
X184632200Y-70426190D02*
X184679819Y-70569047D01*
X184679819Y-70569047D02*
X184679819Y-70664285D01*
X184679819Y-69807142D02*
X183679819Y-69807142D01*
X183679819Y-69807142D02*
X183679819Y-69426190D01*
X183679819Y-69426190D02*
X183727438Y-69330952D01*
X183727438Y-69330952D02*
X183775057Y-69283333D01*
X183775057Y-69283333D02*
X183870295Y-69235714D01*
X183870295Y-69235714D02*
X184013152Y-69235714D01*
X184013152Y-69235714D02*
X184108390Y-69283333D01*
X184108390Y-69283333D02*
X184156009Y-69330952D01*
X184156009Y-69330952D02*
X184203628Y-69426190D01*
X184203628Y-69426190D02*
X184203628Y-69807142D01*
X183775057Y-68854761D02*
X183727438Y-68807142D01*
X183727438Y-68807142D02*
X183679819Y-68711904D01*
X183679819Y-68711904D02*
X183679819Y-68473809D01*
X183679819Y-68473809D02*
X183727438Y-68378571D01*
X183727438Y-68378571D02*
X183775057Y-68330952D01*
X183775057Y-68330952D02*
X183870295Y-68283333D01*
X183870295Y-68283333D02*
X183965533Y-68283333D01*
X183965533Y-68283333D02*
X184108390Y-68330952D01*
X184108390Y-68330952D02*
X184679819Y-68902380D01*
X184679819Y-68902380D02*
X184679819Y-68283333D01*
X183107142Y-73454819D02*
X182773809Y-72978628D01*
X182535714Y-73454819D02*
X182535714Y-72454819D01*
X182535714Y-72454819D02*
X182916666Y-72454819D01*
X182916666Y-72454819D02*
X183011904Y-72502438D01*
X183011904Y-72502438D02*
X183059523Y-72550057D01*
X183059523Y-72550057D02*
X183107142Y-72645295D01*
X183107142Y-72645295D02*
X183107142Y-72788152D01*
X183107142Y-72788152D02*
X183059523Y-72883390D01*
X183059523Y-72883390D02*
X183011904Y-72931009D01*
X183011904Y-72931009D02*
X182916666Y-72978628D01*
X182916666Y-72978628D02*
X182535714Y-72978628D01*
X184059523Y-73454819D02*
X183488095Y-73454819D01*
X183773809Y-73454819D02*
X183773809Y-72454819D01*
X183773809Y-72454819D02*
X183678571Y-72597676D01*
X183678571Y-72597676D02*
X183583333Y-72692914D01*
X183583333Y-72692914D02*
X183488095Y-72740533D01*
X184392857Y-72454819D02*
X185011904Y-72454819D01*
X185011904Y-72454819D02*
X184678571Y-72835771D01*
X184678571Y-72835771D02*
X184821428Y-72835771D01*
X184821428Y-72835771D02*
X184916666Y-72883390D01*
X184916666Y-72883390D02*
X184964285Y-72931009D01*
X184964285Y-72931009D02*
X185011904Y-73026247D01*
X185011904Y-73026247D02*
X185011904Y-73264342D01*
X185011904Y-73264342D02*
X184964285Y-73359580D01*
X184964285Y-73359580D02*
X184916666Y-73407200D01*
X184916666Y-73407200D02*
X184821428Y-73454819D01*
X184821428Y-73454819D02*
X184535714Y-73454819D01*
X184535714Y-73454819D02*
X184440476Y-73407200D01*
X184440476Y-73407200D02*
X184392857Y-73359580D01*
X180054819Y-63413094D02*
X179054819Y-63413094D01*
X179054819Y-63413094D02*
X179054819Y-63174999D01*
X179054819Y-63174999D02*
X179102438Y-63032142D01*
X179102438Y-63032142D02*
X179197676Y-62936904D01*
X179197676Y-62936904D02*
X179292914Y-62889285D01*
X179292914Y-62889285D02*
X179483390Y-62841666D01*
X179483390Y-62841666D02*
X179626247Y-62841666D01*
X179626247Y-62841666D02*
X179816723Y-62889285D01*
X179816723Y-62889285D02*
X179911961Y-62936904D01*
X179911961Y-62936904D02*
X180007200Y-63032142D01*
X180007200Y-63032142D02*
X180054819Y-63174999D01*
X180054819Y-63174999D02*
X180054819Y-63413094D01*
X180054819Y-61889285D02*
X180054819Y-62460713D01*
X180054819Y-62174999D02*
X179054819Y-62174999D01*
X179054819Y-62174999D02*
X179197676Y-62270237D01*
X179197676Y-62270237D02*
X179292914Y-62365475D01*
X179292914Y-62365475D02*
X179340533Y-62460713D01*
X143377142Y-109314819D02*
X143043809Y-108838628D01*
X142805714Y-109314819D02*
X142805714Y-108314819D01*
X142805714Y-108314819D02*
X143186666Y-108314819D01*
X143186666Y-108314819D02*
X143281904Y-108362438D01*
X143281904Y-108362438D02*
X143329523Y-108410057D01*
X143329523Y-108410057D02*
X143377142Y-108505295D01*
X143377142Y-108505295D02*
X143377142Y-108648152D01*
X143377142Y-108648152D02*
X143329523Y-108743390D01*
X143329523Y-108743390D02*
X143281904Y-108791009D01*
X143281904Y-108791009D02*
X143186666Y-108838628D01*
X143186666Y-108838628D02*
X142805714Y-108838628D01*
X144329523Y-109314819D02*
X143758095Y-109314819D01*
X144043809Y-109314819D02*
X144043809Y-108314819D01*
X144043809Y-108314819D02*
X143948571Y-108457676D01*
X143948571Y-108457676D02*
X143853333Y-108552914D01*
X143853333Y-108552914D02*
X143758095Y-108600533D01*
X144805714Y-109314819D02*
X144996190Y-109314819D01*
X144996190Y-109314819D02*
X145091428Y-109267200D01*
X145091428Y-109267200D02*
X145139047Y-109219580D01*
X145139047Y-109219580D02*
X145234285Y-109076723D01*
X145234285Y-109076723D02*
X145281904Y-108886247D01*
X145281904Y-108886247D02*
X145281904Y-108505295D01*
X145281904Y-108505295D02*
X145234285Y-108410057D01*
X145234285Y-108410057D02*
X145186666Y-108362438D01*
X145186666Y-108362438D02*
X145091428Y-108314819D01*
X145091428Y-108314819D02*
X144900952Y-108314819D01*
X144900952Y-108314819D02*
X144805714Y-108362438D01*
X144805714Y-108362438D02*
X144758095Y-108410057D01*
X144758095Y-108410057D02*
X144710476Y-108505295D01*
X144710476Y-108505295D02*
X144710476Y-108743390D01*
X144710476Y-108743390D02*
X144758095Y-108838628D01*
X144758095Y-108838628D02*
X144805714Y-108886247D01*
X144805714Y-108886247D02*
X144900952Y-108933866D01*
X144900952Y-108933866D02*
X145091428Y-108933866D01*
X145091428Y-108933866D02*
X145186666Y-108886247D01*
X145186666Y-108886247D02*
X145234285Y-108838628D01*
X145234285Y-108838628D02*
X145281904Y-108743390D01*
X147909819Y-115257857D02*
X147433628Y-115591190D01*
X147909819Y-115829285D02*
X146909819Y-115829285D01*
X146909819Y-115829285D02*
X146909819Y-115448333D01*
X146909819Y-115448333D02*
X146957438Y-115353095D01*
X146957438Y-115353095D02*
X147005057Y-115305476D01*
X147005057Y-115305476D02*
X147100295Y-115257857D01*
X147100295Y-115257857D02*
X147243152Y-115257857D01*
X147243152Y-115257857D02*
X147338390Y-115305476D01*
X147338390Y-115305476D02*
X147386009Y-115353095D01*
X147386009Y-115353095D02*
X147433628Y-115448333D01*
X147433628Y-115448333D02*
X147433628Y-115829285D01*
X147909819Y-114305476D02*
X147909819Y-114876904D01*
X147909819Y-114591190D02*
X146909819Y-114591190D01*
X146909819Y-114591190D02*
X147052676Y-114686428D01*
X147052676Y-114686428D02*
X147147914Y-114781666D01*
X147147914Y-114781666D02*
X147195533Y-114876904D01*
X147338390Y-113734047D02*
X147290771Y-113829285D01*
X147290771Y-113829285D02*
X147243152Y-113876904D01*
X147243152Y-113876904D02*
X147147914Y-113924523D01*
X147147914Y-113924523D02*
X147100295Y-113924523D01*
X147100295Y-113924523D02*
X147005057Y-113876904D01*
X147005057Y-113876904D02*
X146957438Y-113829285D01*
X146957438Y-113829285D02*
X146909819Y-113734047D01*
X146909819Y-113734047D02*
X146909819Y-113543571D01*
X146909819Y-113543571D02*
X146957438Y-113448333D01*
X146957438Y-113448333D02*
X147005057Y-113400714D01*
X147005057Y-113400714D02*
X147100295Y-113353095D01*
X147100295Y-113353095D02*
X147147914Y-113353095D01*
X147147914Y-113353095D02*
X147243152Y-113400714D01*
X147243152Y-113400714D02*
X147290771Y-113448333D01*
X147290771Y-113448333D02*
X147338390Y-113543571D01*
X147338390Y-113543571D02*
X147338390Y-113734047D01*
X147338390Y-113734047D02*
X147386009Y-113829285D01*
X147386009Y-113829285D02*
X147433628Y-113876904D01*
X147433628Y-113876904D02*
X147528866Y-113924523D01*
X147528866Y-113924523D02*
X147719342Y-113924523D01*
X147719342Y-113924523D02*
X147814580Y-113876904D01*
X147814580Y-113876904D02*
X147862200Y-113829285D01*
X147862200Y-113829285D02*
X147909819Y-113734047D01*
X147909819Y-113734047D02*
X147909819Y-113543571D01*
X147909819Y-113543571D02*
X147862200Y-113448333D01*
X147862200Y-113448333D02*
X147814580Y-113400714D01*
X147814580Y-113400714D02*
X147719342Y-113353095D01*
X147719342Y-113353095D02*
X147528866Y-113353095D01*
X147528866Y-113353095D02*
X147433628Y-113400714D01*
X147433628Y-113400714D02*
X147386009Y-113448333D01*
X147386009Y-113448333D02*
X147338390Y-113543571D01*
X150627142Y-109224819D02*
X150293809Y-108748628D01*
X150055714Y-109224819D02*
X150055714Y-108224819D01*
X150055714Y-108224819D02*
X150436666Y-108224819D01*
X150436666Y-108224819D02*
X150531904Y-108272438D01*
X150531904Y-108272438D02*
X150579523Y-108320057D01*
X150579523Y-108320057D02*
X150627142Y-108415295D01*
X150627142Y-108415295D02*
X150627142Y-108558152D01*
X150627142Y-108558152D02*
X150579523Y-108653390D01*
X150579523Y-108653390D02*
X150531904Y-108701009D01*
X150531904Y-108701009D02*
X150436666Y-108748628D01*
X150436666Y-108748628D02*
X150055714Y-108748628D01*
X151008095Y-108320057D02*
X151055714Y-108272438D01*
X151055714Y-108272438D02*
X151150952Y-108224819D01*
X151150952Y-108224819D02*
X151389047Y-108224819D01*
X151389047Y-108224819D02*
X151484285Y-108272438D01*
X151484285Y-108272438D02*
X151531904Y-108320057D01*
X151531904Y-108320057D02*
X151579523Y-108415295D01*
X151579523Y-108415295D02*
X151579523Y-108510533D01*
X151579523Y-108510533D02*
X151531904Y-108653390D01*
X151531904Y-108653390D02*
X150960476Y-109224819D01*
X150960476Y-109224819D02*
X151579523Y-109224819D01*
X152198571Y-108224819D02*
X152293809Y-108224819D01*
X152293809Y-108224819D02*
X152389047Y-108272438D01*
X152389047Y-108272438D02*
X152436666Y-108320057D01*
X152436666Y-108320057D02*
X152484285Y-108415295D01*
X152484285Y-108415295D02*
X152531904Y-108605771D01*
X152531904Y-108605771D02*
X152531904Y-108843866D01*
X152531904Y-108843866D02*
X152484285Y-109034342D01*
X152484285Y-109034342D02*
X152436666Y-109129580D01*
X152436666Y-109129580D02*
X152389047Y-109177200D01*
X152389047Y-109177200D02*
X152293809Y-109224819D01*
X152293809Y-109224819D02*
X152198571Y-109224819D01*
X152198571Y-109224819D02*
X152103333Y-109177200D01*
X152103333Y-109177200D02*
X152055714Y-109129580D01*
X152055714Y-109129580D02*
X152008095Y-109034342D01*
X152008095Y-109034342D02*
X151960476Y-108843866D01*
X151960476Y-108843866D02*
X151960476Y-108605771D01*
X151960476Y-108605771D02*
X152008095Y-108415295D01*
X152008095Y-108415295D02*
X152055714Y-108320057D01*
X152055714Y-108320057D02*
X152103333Y-108272438D01*
X152103333Y-108272438D02*
X152198571Y-108224819D01*
X154241666Y-112712319D02*
X154241666Y-113426604D01*
X154241666Y-113426604D02*
X154194047Y-113569461D01*
X154194047Y-113569461D02*
X154098809Y-113664700D01*
X154098809Y-113664700D02*
X153955952Y-113712319D01*
X153955952Y-113712319D02*
X153860714Y-113712319D01*
X154765476Y-113712319D02*
X154955952Y-113712319D01*
X154955952Y-113712319D02*
X155051190Y-113664700D01*
X155051190Y-113664700D02*
X155098809Y-113617080D01*
X155098809Y-113617080D02*
X155194047Y-113474223D01*
X155194047Y-113474223D02*
X155241666Y-113283747D01*
X155241666Y-113283747D02*
X155241666Y-112902795D01*
X155241666Y-112902795D02*
X155194047Y-112807557D01*
X155194047Y-112807557D02*
X155146428Y-112759938D01*
X155146428Y-112759938D02*
X155051190Y-112712319D01*
X155051190Y-112712319D02*
X154860714Y-112712319D01*
X154860714Y-112712319D02*
X154765476Y-112759938D01*
X154765476Y-112759938D02*
X154717857Y-112807557D01*
X154717857Y-112807557D02*
X154670238Y-112902795D01*
X154670238Y-112902795D02*
X154670238Y-113140890D01*
X154670238Y-113140890D02*
X154717857Y-113236128D01*
X154717857Y-113236128D02*
X154765476Y-113283747D01*
X154765476Y-113283747D02*
X154860714Y-113331366D01*
X154860714Y-113331366D02*
X155051190Y-113331366D01*
X155051190Y-113331366D02*
X155146428Y-113283747D01*
X155146428Y-113283747D02*
X155194047Y-113236128D01*
X155194047Y-113236128D02*
X155241666Y-113140890D01*
X154609523Y-61334819D02*
X154276190Y-60858628D01*
X154038095Y-61334819D02*
X154038095Y-60334819D01*
X154038095Y-60334819D02*
X154419047Y-60334819D01*
X154419047Y-60334819D02*
X154514285Y-60382438D01*
X154514285Y-60382438D02*
X154561904Y-60430057D01*
X154561904Y-60430057D02*
X154609523Y-60525295D01*
X154609523Y-60525295D02*
X154609523Y-60668152D01*
X154609523Y-60668152D02*
X154561904Y-60763390D01*
X154561904Y-60763390D02*
X154514285Y-60811009D01*
X154514285Y-60811009D02*
X154419047Y-60858628D01*
X154419047Y-60858628D02*
X154038095Y-60858628D01*
X155609523Y-61239580D02*
X155561904Y-61287200D01*
X155561904Y-61287200D02*
X155419047Y-61334819D01*
X155419047Y-61334819D02*
X155323809Y-61334819D01*
X155323809Y-61334819D02*
X155180952Y-61287200D01*
X155180952Y-61287200D02*
X155085714Y-61191961D01*
X155085714Y-61191961D02*
X155038095Y-61096723D01*
X155038095Y-61096723D02*
X154990476Y-60906247D01*
X154990476Y-60906247D02*
X154990476Y-60763390D01*
X154990476Y-60763390D02*
X155038095Y-60572914D01*
X155038095Y-60572914D02*
X155085714Y-60477676D01*
X155085714Y-60477676D02*
X155180952Y-60382438D01*
X155180952Y-60382438D02*
X155323809Y-60334819D01*
X155323809Y-60334819D02*
X155419047Y-60334819D01*
X155419047Y-60334819D02*
X155561904Y-60382438D01*
X155561904Y-60382438D02*
X155609523Y-60430057D01*
X156514285Y-61334819D02*
X156038095Y-61334819D01*
X156038095Y-61334819D02*
X156038095Y-60334819D01*
X156847619Y-60953866D02*
X157609524Y-60953866D01*
X158609523Y-61334819D02*
X158038095Y-61334819D01*
X158323809Y-61334819D02*
X158323809Y-60334819D01*
X158323809Y-60334819D02*
X158228571Y-60477676D01*
X158228571Y-60477676D02*
X158133333Y-60572914D01*
X158133333Y-60572914D02*
X158038095Y-60620533D01*
X88624819Y-77242857D02*
X88148628Y-77576190D01*
X88624819Y-77814285D02*
X87624819Y-77814285D01*
X87624819Y-77814285D02*
X87624819Y-77433333D01*
X87624819Y-77433333D02*
X87672438Y-77338095D01*
X87672438Y-77338095D02*
X87720057Y-77290476D01*
X87720057Y-77290476D02*
X87815295Y-77242857D01*
X87815295Y-77242857D02*
X87958152Y-77242857D01*
X87958152Y-77242857D02*
X88053390Y-77290476D01*
X88053390Y-77290476D02*
X88101009Y-77338095D01*
X88101009Y-77338095D02*
X88148628Y-77433333D01*
X88148628Y-77433333D02*
X88148628Y-77814285D01*
X88624819Y-76290476D02*
X88624819Y-76861904D01*
X88624819Y-76576190D02*
X87624819Y-76576190D01*
X87624819Y-76576190D02*
X87767676Y-76671428D01*
X87767676Y-76671428D02*
X87862914Y-76766666D01*
X87862914Y-76766666D02*
X87910533Y-76861904D01*
X87958152Y-75433333D02*
X88624819Y-75433333D01*
X87577200Y-75671428D02*
X88291485Y-75909523D01*
X88291485Y-75909523D02*
X88291485Y-75290476D01*
X123924819Y-76716666D02*
X123448628Y-77049999D01*
X123924819Y-77288094D02*
X122924819Y-77288094D01*
X122924819Y-77288094D02*
X122924819Y-76907142D01*
X122924819Y-76907142D02*
X122972438Y-76811904D01*
X122972438Y-76811904D02*
X123020057Y-76764285D01*
X123020057Y-76764285D02*
X123115295Y-76716666D01*
X123115295Y-76716666D02*
X123258152Y-76716666D01*
X123258152Y-76716666D02*
X123353390Y-76764285D01*
X123353390Y-76764285D02*
X123401009Y-76811904D01*
X123401009Y-76811904D02*
X123448628Y-76907142D01*
X123448628Y-76907142D02*
X123448628Y-77288094D01*
X123353390Y-76145237D02*
X123305771Y-76240475D01*
X123305771Y-76240475D02*
X123258152Y-76288094D01*
X123258152Y-76288094D02*
X123162914Y-76335713D01*
X123162914Y-76335713D02*
X123115295Y-76335713D01*
X123115295Y-76335713D02*
X123020057Y-76288094D01*
X123020057Y-76288094D02*
X122972438Y-76240475D01*
X122972438Y-76240475D02*
X122924819Y-76145237D01*
X122924819Y-76145237D02*
X122924819Y-75954761D01*
X122924819Y-75954761D02*
X122972438Y-75859523D01*
X122972438Y-75859523D02*
X123020057Y-75811904D01*
X123020057Y-75811904D02*
X123115295Y-75764285D01*
X123115295Y-75764285D02*
X123162914Y-75764285D01*
X123162914Y-75764285D02*
X123258152Y-75811904D01*
X123258152Y-75811904D02*
X123305771Y-75859523D01*
X123305771Y-75859523D02*
X123353390Y-75954761D01*
X123353390Y-75954761D02*
X123353390Y-76145237D01*
X123353390Y-76145237D02*
X123401009Y-76240475D01*
X123401009Y-76240475D02*
X123448628Y-76288094D01*
X123448628Y-76288094D02*
X123543866Y-76335713D01*
X123543866Y-76335713D02*
X123734342Y-76335713D01*
X123734342Y-76335713D02*
X123829580Y-76288094D01*
X123829580Y-76288094D02*
X123877200Y-76240475D01*
X123877200Y-76240475D02*
X123924819Y-76145237D01*
X123924819Y-76145237D02*
X123924819Y-75954761D01*
X123924819Y-75954761D02*
X123877200Y-75859523D01*
X123877200Y-75859523D02*
X123829580Y-75811904D01*
X123829580Y-75811904D02*
X123734342Y-75764285D01*
X123734342Y-75764285D02*
X123543866Y-75764285D01*
X123543866Y-75764285D02*
X123448628Y-75811904D01*
X123448628Y-75811904D02*
X123401009Y-75859523D01*
X123401009Y-75859523D02*
X123353390Y-75954761D01*
X103109580Y-113617857D02*
X103157200Y-113665476D01*
X103157200Y-113665476D02*
X103204819Y-113808333D01*
X103204819Y-113808333D02*
X103204819Y-113903571D01*
X103204819Y-113903571D02*
X103157200Y-114046428D01*
X103157200Y-114046428D02*
X103061961Y-114141666D01*
X103061961Y-114141666D02*
X102966723Y-114189285D01*
X102966723Y-114189285D02*
X102776247Y-114236904D01*
X102776247Y-114236904D02*
X102633390Y-114236904D01*
X102633390Y-114236904D02*
X102442914Y-114189285D01*
X102442914Y-114189285D02*
X102347676Y-114141666D01*
X102347676Y-114141666D02*
X102252438Y-114046428D01*
X102252438Y-114046428D02*
X102204819Y-113903571D01*
X102204819Y-113903571D02*
X102204819Y-113808333D01*
X102204819Y-113808333D02*
X102252438Y-113665476D01*
X102252438Y-113665476D02*
X102300057Y-113617857D01*
X103204819Y-112665476D02*
X103204819Y-113236904D01*
X103204819Y-112951190D02*
X102204819Y-112951190D01*
X102204819Y-112951190D02*
X102347676Y-113046428D01*
X102347676Y-113046428D02*
X102442914Y-113141666D01*
X102442914Y-113141666D02*
X102490533Y-113236904D01*
X102300057Y-112284523D02*
X102252438Y-112236904D01*
X102252438Y-112236904D02*
X102204819Y-112141666D01*
X102204819Y-112141666D02*
X102204819Y-111903571D01*
X102204819Y-111903571D02*
X102252438Y-111808333D01*
X102252438Y-111808333D02*
X102300057Y-111760714D01*
X102300057Y-111760714D02*
X102395295Y-111713095D01*
X102395295Y-111713095D02*
X102490533Y-111713095D01*
X102490533Y-111713095D02*
X102633390Y-111760714D01*
X102633390Y-111760714D02*
X103204819Y-112332142D01*
X103204819Y-112332142D02*
X103204819Y-111713095D01*
X118174819Y-76716666D02*
X117698628Y-77049999D01*
X118174819Y-77288094D02*
X117174819Y-77288094D01*
X117174819Y-77288094D02*
X117174819Y-76907142D01*
X117174819Y-76907142D02*
X117222438Y-76811904D01*
X117222438Y-76811904D02*
X117270057Y-76764285D01*
X117270057Y-76764285D02*
X117365295Y-76716666D01*
X117365295Y-76716666D02*
X117508152Y-76716666D01*
X117508152Y-76716666D02*
X117603390Y-76764285D01*
X117603390Y-76764285D02*
X117651009Y-76811904D01*
X117651009Y-76811904D02*
X117698628Y-76907142D01*
X117698628Y-76907142D02*
X117698628Y-77288094D01*
X117174819Y-75811904D02*
X117174819Y-76288094D01*
X117174819Y-76288094D02*
X117651009Y-76335713D01*
X117651009Y-76335713D02*
X117603390Y-76288094D01*
X117603390Y-76288094D02*
X117555771Y-76192856D01*
X117555771Y-76192856D02*
X117555771Y-75954761D01*
X117555771Y-75954761D02*
X117603390Y-75859523D01*
X117603390Y-75859523D02*
X117651009Y-75811904D01*
X117651009Y-75811904D02*
X117746247Y-75764285D01*
X117746247Y-75764285D02*
X117984342Y-75764285D01*
X117984342Y-75764285D02*
X118079580Y-75811904D01*
X118079580Y-75811904D02*
X118127200Y-75859523D01*
X118127200Y-75859523D02*
X118174819Y-75954761D01*
X118174819Y-75954761D02*
X118174819Y-76192856D01*
X118174819Y-76192856D02*
X118127200Y-76288094D01*
X118127200Y-76288094D02*
X118079580Y-76335713D01*
X81616666Y-57459819D02*
X81616666Y-58174104D01*
X81616666Y-58174104D02*
X81569047Y-58316961D01*
X81569047Y-58316961D02*
X81473809Y-58412200D01*
X81473809Y-58412200D02*
X81330952Y-58459819D01*
X81330952Y-58459819D02*
X81235714Y-58459819D01*
X81997619Y-57459819D02*
X82616666Y-57459819D01*
X82616666Y-57459819D02*
X82283333Y-57840771D01*
X82283333Y-57840771D02*
X82426190Y-57840771D01*
X82426190Y-57840771D02*
X82521428Y-57888390D01*
X82521428Y-57888390D02*
X82569047Y-57936009D01*
X82569047Y-57936009D02*
X82616666Y-58031247D01*
X82616666Y-58031247D02*
X82616666Y-58269342D01*
X82616666Y-58269342D02*
X82569047Y-58364580D01*
X82569047Y-58364580D02*
X82521428Y-58412200D01*
X82521428Y-58412200D02*
X82426190Y-58459819D01*
X82426190Y-58459819D02*
X82140476Y-58459819D01*
X82140476Y-58459819D02*
X82045238Y-58412200D01*
X82045238Y-58412200D02*
X81997619Y-58364580D01*
X96957142Y-95385319D02*
X96623809Y-94909128D01*
X96385714Y-95385319D02*
X96385714Y-94385319D01*
X96385714Y-94385319D02*
X96766666Y-94385319D01*
X96766666Y-94385319D02*
X96861904Y-94432938D01*
X96861904Y-94432938D02*
X96909523Y-94480557D01*
X96909523Y-94480557D02*
X96957142Y-94575795D01*
X96957142Y-94575795D02*
X96957142Y-94718652D01*
X96957142Y-94718652D02*
X96909523Y-94813890D01*
X96909523Y-94813890D02*
X96861904Y-94861509D01*
X96861904Y-94861509D02*
X96766666Y-94909128D01*
X96766666Y-94909128D02*
X96385714Y-94909128D01*
X97909523Y-95385319D02*
X97338095Y-95385319D01*
X97623809Y-95385319D02*
X97623809Y-94385319D01*
X97623809Y-94385319D02*
X97528571Y-94528176D01*
X97528571Y-94528176D02*
X97433333Y-94623414D01*
X97433333Y-94623414D02*
X97338095Y-94671033D01*
X98861904Y-95385319D02*
X98290476Y-95385319D01*
X98576190Y-95385319D02*
X98576190Y-94385319D01*
X98576190Y-94385319D02*
X98480952Y-94528176D01*
X98480952Y-94528176D02*
X98385714Y-94623414D01*
X98385714Y-94623414D02*
X98290476Y-94671033D01*
X170458333Y-101384580D02*
X170410714Y-101432200D01*
X170410714Y-101432200D02*
X170267857Y-101479819D01*
X170267857Y-101479819D02*
X170172619Y-101479819D01*
X170172619Y-101479819D02*
X170029762Y-101432200D01*
X170029762Y-101432200D02*
X169934524Y-101336961D01*
X169934524Y-101336961D02*
X169886905Y-101241723D01*
X169886905Y-101241723D02*
X169839286Y-101051247D01*
X169839286Y-101051247D02*
X169839286Y-100908390D01*
X169839286Y-100908390D02*
X169886905Y-100717914D01*
X169886905Y-100717914D02*
X169934524Y-100622676D01*
X169934524Y-100622676D02*
X170029762Y-100527438D01*
X170029762Y-100527438D02*
X170172619Y-100479819D01*
X170172619Y-100479819D02*
X170267857Y-100479819D01*
X170267857Y-100479819D02*
X170410714Y-100527438D01*
X170410714Y-100527438D02*
X170458333Y-100575057D01*
X171363095Y-100479819D02*
X170886905Y-100479819D01*
X170886905Y-100479819D02*
X170839286Y-100956009D01*
X170839286Y-100956009D02*
X170886905Y-100908390D01*
X170886905Y-100908390D02*
X170982143Y-100860771D01*
X170982143Y-100860771D02*
X171220238Y-100860771D01*
X171220238Y-100860771D02*
X171315476Y-100908390D01*
X171315476Y-100908390D02*
X171363095Y-100956009D01*
X171363095Y-100956009D02*
X171410714Y-101051247D01*
X171410714Y-101051247D02*
X171410714Y-101289342D01*
X171410714Y-101289342D02*
X171363095Y-101384580D01*
X171363095Y-101384580D02*
X171315476Y-101432200D01*
X171315476Y-101432200D02*
X171220238Y-101479819D01*
X171220238Y-101479819D02*
X170982143Y-101479819D01*
X170982143Y-101479819D02*
X170886905Y-101432200D01*
X170886905Y-101432200D02*
X170839286Y-101384580D01*
X170458333Y-105884580D02*
X170410714Y-105932200D01*
X170410714Y-105932200D02*
X170267857Y-105979819D01*
X170267857Y-105979819D02*
X170172619Y-105979819D01*
X170172619Y-105979819D02*
X170029762Y-105932200D01*
X170029762Y-105932200D02*
X169934524Y-105836961D01*
X169934524Y-105836961D02*
X169886905Y-105741723D01*
X169886905Y-105741723D02*
X169839286Y-105551247D01*
X169839286Y-105551247D02*
X169839286Y-105408390D01*
X169839286Y-105408390D02*
X169886905Y-105217914D01*
X169886905Y-105217914D02*
X169934524Y-105122676D01*
X169934524Y-105122676D02*
X170029762Y-105027438D01*
X170029762Y-105027438D02*
X170172619Y-104979819D01*
X170172619Y-104979819D02*
X170267857Y-104979819D01*
X170267857Y-104979819D02*
X170410714Y-105027438D01*
X170410714Y-105027438D02*
X170458333Y-105075057D01*
X171315476Y-104979819D02*
X171125000Y-104979819D01*
X171125000Y-104979819D02*
X171029762Y-105027438D01*
X171029762Y-105027438D02*
X170982143Y-105075057D01*
X170982143Y-105075057D02*
X170886905Y-105217914D01*
X170886905Y-105217914D02*
X170839286Y-105408390D01*
X170839286Y-105408390D02*
X170839286Y-105789342D01*
X170839286Y-105789342D02*
X170886905Y-105884580D01*
X170886905Y-105884580D02*
X170934524Y-105932200D01*
X170934524Y-105932200D02*
X171029762Y-105979819D01*
X171029762Y-105979819D02*
X171220238Y-105979819D01*
X171220238Y-105979819D02*
X171315476Y-105932200D01*
X171315476Y-105932200D02*
X171363095Y-105884580D01*
X171363095Y-105884580D02*
X171410714Y-105789342D01*
X171410714Y-105789342D02*
X171410714Y-105551247D01*
X171410714Y-105551247D02*
X171363095Y-105456009D01*
X171363095Y-105456009D02*
X171315476Y-105408390D01*
X171315476Y-105408390D02*
X171220238Y-105360771D01*
X171220238Y-105360771D02*
X171029762Y-105360771D01*
X171029762Y-105360771D02*
X170934524Y-105408390D01*
X170934524Y-105408390D02*
X170886905Y-105456009D01*
X170886905Y-105456009D02*
X170839286Y-105551247D01*
X88624819Y-67742857D02*
X88148628Y-68076190D01*
X88624819Y-68314285D02*
X87624819Y-68314285D01*
X87624819Y-68314285D02*
X87624819Y-67933333D01*
X87624819Y-67933333D02*
X87672438Y-67838095D01*
X87672438Y-67838095D02*
X87720057Y-67790476D01*
X87720057Y-67790476D02*
X87815295Y-67742857D01*
X87815295Y-67742857D02*
X87958152Y-67742857D01*
X87958152Y-67742857D02*
X88053390Y-67790476D01*
X88053390Y-67790476D02*
X88101009Y-67838095D01*
X88101009Y-67838095D02*
X88148628Y-67933333D01*
X88148628Y-67933333D02*
X88148628Y-68314285D01*
X88624819Y-66790476D02*
X88624819Y-67361904D01*
X88624819Y-67076190D02*
X87624819Y-67076190D01*
X87624819Y-67076190D02*
X87767676Y-67171428D01*
X87767676Y-67171428D02*
X87862914Y-67266666D01*
X87862914Y-67266666D02*
X87910533Y-67361904D01*
X87624819Y-65885714D02*
X87624819Y-66361904D01*
X87624819Y-66361904D02*
X88101009Y-66409523D01*
X88101009Y-66409523D02*
X88053390Y-66361904D01*
X88053390Y-66361904D02*
X88005771Y-66266666D01*
X88005771Y-66266666D02*
X88005771Y-66028571D01*
X88005771Y-66028571D02*
X88053390Y-65933333D01*
X88053390Y-65933333D02*
X88101009Y-65885714D01*
X88101009Y-65885714D02*
X88196247Y-65838095D01*
X88196247Y-65838095D02*
X88434342Y-65838095D01*
X88434342Y-65838095D02*
X88529580Y-65885714D01*
X88529580Y-65885714D02*
X88577200Y-65933333D01*
X88577200Y-65933333D02*
X88624819Y-66028571D01*
X88624819Y-66028571D02*
X88624819Y-66266666D01*
X88624819Y-66266666D02*
X88577200Y-66361904D01*
X88577200Y-66361904D02*
X88529580Y-66409523D01*
X112424819Y-76716666D02*
X111948628Y-77049999D01*
X112424819Y-77288094D02*
X111424819Y-77288094D01*
X111424819Y-77288094D02*
X111424819Y-76907142D01*
X111424819Y-76907142D02*
X111472438Y-76811904D01*
X111472438Y-76811904D02*
X111520057Y-76764285D01*
X111520057Y-76764285D02*
X111615295Y-76716666D01*
X111615295Y-76716666D02*
X111758152Y-76716666D01*
X111758152Y-76716666D02*
X111853390Y-76764285D01*
X111853390Y-76764285D02*
X111901009Y-76811904D01*
X111901009Y-76811904D02*
X111948628Y-76907142D01*
X111948628Y-76907142D02*
X111948628Y-77288094D01*
X111520057Y-76335713D02*
X111472438Y-76288094D01*
X111472438Y-76288094D02*
X111424819Y-76192856D01*
X111424819Y-76192856D02*
X111424819Y-75954761D01*
X111424819Y-75954761D02*
X111472438Y-75859523D01*
X111472438Y-75859523D02*
X111520057Y-75811904D01*
X111520057Y-75811904D02*
X111615295Y-75764285D01*
X111615295Y-75764285D02*
X111710533Y-75764285D01*
X111710533Y-75764285D02*
X111853390Y-75811904D01*
X111853390Y-75811904D02*
X112424819Y-76383332D01*
X112424819Y-76383332D02*
X112424819Y-75764285D01*
X112424819Y-67216666D02*
X111948628Y-67549999D01*
X112424819Y-67788094D02*
X111424819Y-67788094D01*
X111424819Y-67788094D02*
X111424819Y-67407142D01*
X111424819Y-67407142D02*
X111472438Y-67311904D01*
X111472438Y-67311904D02*
X111520057Y-67264285D01*
X111520057Y-67264285D02*
X111615295Y-67216666D01*
X111615295Y-67216666D02*
X111758152Y-67216666D01*
X111758152Y-67216666D02*
X111853390Y-67264285D01*
X111853390Y-67264285D02*
X111901009Y-67311904D01*
X111901009Y-67311904D02*
X111948628Y-67407142D01*
X111948628Y-67407142D02*
X111948628Y-67788094D01*
X111424819Y-66883332D02*
X111424819Y-66264285D01*
X111424819Y-66264285D02*
X111805771Y-66597618D01*
X111805771Y-66597618D02*
X111805771Y-66454761D01*
X111805771Y-66454761D02*
X111853390Y-66359523D01*
X111853390Y-66359523D02*
X111901009Y-66311904D01*
X111901009Y-66311904D02*
X111996247Y-66264285D01*
X111996247Y-66264285D02*
X112234342Y-66264285D01*
X112234342Y-66264285D02*
X112329580Y-66311904D01*
X112329580Y-66311904D02*
X112377200Y-66359523D01*
X112377200Y-66359523D02*
X112424819Y-66454761D01*
X112424819Y-66454761D02*
X112424819Y-66740475D01*
X112424819Y-66740475D02*
X112377200Y-66835713D01*
X112377200Y-66835713D02*
X112329580Y-66883332D01*
X123924819Y-67216666D02*
X123448628Y-67549999D01*
X123924819Y-67788094D02*
X122924819Y-67788094D01*
X122924819Y-67788094D02*
X122924819Y-67407142D01*
X122924819Y-67407142D02*
X122972438Y-67311904D01*
X122972438Y-67311904D02*
X123020057Y-67264285D01*
X123020057Y-67264285D02*
X123115295Y-67216666D01*
X123115295Y-67216666D02*
X123258152Y-67216666D01*
X123258152Y-67216666D02*
X123353390Y-67264285D01*
X123353390Y-67264285D02*
X123401009Y-67311904D01*
X123401009Y-67311904D02*
X123448628Y-67407142D01*
X123448628Y-67407142D02*
X123448628Y-67788094D01*
X123924819Y-66740475D02*
X123924819Y-66549999D01*
X123924819Y-66549999D02*
X123877200Y-66454761D01*
X123877200Y-66454761D02*
X123829580Y-66407142D01*
X123829580Y-66407142D02*
X123686723Y-66311904D01*
X123686723Y-66311904D02*
X123496247Y-66264285D01*
X123496247Y-66264285D02*
X123115295Y-66264285D01*
X123115295Y-66264285D02*
X123020057Y-66311904D01*
X123020057Y-66311904D02*
X122972438Y-66359523D01*
X122972438Y-66359523D02*
X122924819Y-66454761D01*
X122924819Y-66454761D02*
X122924819Y-66645237D01*
X122924819Y-66645237D02*
X122972438Y-66740475D01*
X122972438Y-66740475D02*
X123020057Y-66788094D01*
X123020057Y-66788094D02*
X123115295Y-66835713D01*
X123115295Y-66835713D02*
X123353390Y-66835713D01*
X123353390Y-66835713D02*
X123448628Y-66788094D01*
X123448628Y-66788094D02*
X123496247Y-66740475D01*
X123496247Y-66740475D02*
X123543866Y-66645237D01*
X123543866Y-66645237D02*
X123543866Y-66454761D01*
X123543866Y-66454761D02*
X123496247Y-66359523D01*
X123496247Y-66359523D02*
X123448628Y-66311904D01*
X123448628Y-66311904D02*
X123353390Y-66264285D01*
X173916666Y-112754819D02*
X173916666Y-113469104D01*
X173916666Y-113469104D02*
X173869047Y-113611961D01*
X173869047Y-113611961D02*
X173773809Y-113707200D01*
X173773809Y-113707200D02*
X173630952Y-113754819D01*
X173630952Y-113754819D02*
X173535714Y-113754819D01*
X174916666Y-113754819D02*
X174345238Y-113754819D01*
X174630952Y-113754819D02*
X174630952Y-112754819D01*
X174630952Y-112754819D02*
X174535714Y-112897676D01*
X174535714Y-112897676D02*
X174440476Y-112992914D01*
X174440476Y-112992914D02*
X174345238Y-113040533D01*
X180683333Y-96834580D02*
X180635714Y-96882200D01*
X180635714Y-96882200D02*
X180492857Y-96929819D01*
X180492857Y-96929819D02*
X180397619Y-96929819D01*
X180397619Y-96929819D02*
X180254762Y-96882200D01*
X180254762Y-96882200D02*
X180159524Y-96786961D01*
X180159524Y-96786961D02*
X180111905Y-96691723D01*
X180111905Y-96691723D02*
X180064286Y-96501247D01*
X180064286Y-96501247D02*
X180064286Y-96358390D01*
X180064286Y-96358390D02*
X180111905Y-96167914D01*
X180111905Y-96167914D02*
X180159524Y-96072676D01*
X180159524Y-96072676D02*
X180254762Y-95977438D01*
X180254762Y-95977438D02*
X180397619Y-95929819D01*
X180397619Y-95929819D02*
X180492857Y-95929819D01*
X180492857Y-95929819D02*
X180635714Y-95977438D01*
X180635714Y-95977438D02*
X180683333Y-96025057D01*
X181016667Y-95929819D02*
X181635714Y-95929819D01*
X181635714Y-95929819D02*
X181302381Y-96310771D01*
X181302381Y-96310771D02*
X181445238Y-96310771D01*
X181445238Y-96310771D02*
X181540476Y-96358390D01*
X181540476Y-96358390D02*
X181588095Y-96406009D01*
X181588095Y-96406009D02*
X181635714Y-96501247D01*
X181635714Y-96501247D02*
X181635714Y-96739342D01*
X181635714Y-96739342D02*
X181588095Y-96834580D01*
X181588095Y-96834580D02*
X181540476Y-96882200D01*
X181540476Y-96882200D02*
X181445238Y-96929819D01*
X181445238Y-96929819D02*
X181159524Y-96929819D01*
X181159524Y-96929819D02*
X181064286Y-96882200D01*
X181064286Y-96882200D02*
X181016667Y-96834580D01*
X121266666Y-57454819D02*
X121266666Y-58169104D01*
X121266666Y-58169104D02*
X121219047Y-58311961D01*
X121219047Y-58311961D02*
X121123809Y-58407200D01*
X121123809Y-58407200D02*
X120980952Y-58454819D01*
X120980952Y-58454819D02*
X120885714Y-58454819D01*
X122171428Y-57454819D02*
X121980952Y-57454819D01*
X121980952Y-57454819D02*
X121885714Y-57502438D01*
X121885714Y-57502438D02*
X121838095Y-57550057D01*
X121838095Y-57550057D02*
X121742857Y-57692914D01*
X121742857Y-57692914D02*
X121695238Y-57883390D01*
X121695238Y-57883390D02*
X121695238Y-58264342D01*
X121695238Y-58264342D02*
X121742857Y-58359580D01*
X121742857Y-58359580D02*
X121790476Y-58407200D01*
X121790476Y-58407200D02*
X121885714Y-58454819D01*
X121885714Y-58454819D02*
X122076190Y-58454819D01*
X122076190Y-58454819D02*
X122171428Y-58407200D01*
X122171428Y-58407200D02*
X122219047Y-58359580D01*
X122219047Y-58359580D02*
X122266666Y-58264342D01*
X122266666Y-58264342D02*
X122266666Y-58026247D01*
X122266666Y-58026247D02*
X122219047Y-57931009D01*
X122219047Y-57931009D02*
X122171428Y-57883390D01*
X122171428Y-57883390D02*
X122076190Y-57835771D01*
X122076190Y-57835771D02*
X121885714Y-57835771D01*
X121885714Y-57835771D02*
X121790476Y-57883390D01*
X121790476Y-57883390D02*
X121742857Y-57931009D01*
X121742857Y-57931009D02*
X121695238Y-58026247D01*
X94374819Y-67742857D02*
X93898628Y-68076190D01*
X94374819Y-68314285D02*
X93374819Y-68314285D01*
X93374819Y-68314285D02*
X93374819Y-67933333D01*
X93374819Y-67933333D02*
X93422438Y-67838095D01*
X93422438Y-67838095D02*
X93470057Y-67790476D01*
X93470057Y-67790476D02*
X93565295Y-67742857D01*
X93565295Y-67742857D02*
X93708152Y-67742857D01*
X93708152Y-67742857D02*
X93803390Y-67790476D01*
X93803390Y-67790476D02*
X93851009Y-67838095D01*
X93851009Y-67838095D02*
X93898628Y-67933333D01*
X93898628Y-67933333D02*
X93898628Y-68314285D01*
X94374819Y-66790476D02*
X94374819Y-67361904D01*
X94374819Y-67076190D02*
X93374819Y-67076190D01*
X93374819Y-67076190D02*
X93517676Y-67171428D01*
X93517676Y-67171428D02*
X93612914Y-67266666D01*
X93612914Y-67266666D02*
X93660533Y-67361904D01*
X93374819Y-66457142D02*
X93374819Y-65790476D01*
X93374819Y-65790476D02*
X94374819Y-66219047D01*
X89657142Y-95444319D02*
X89323809Y-94968128D01*
X89085714Y-95444319D02*
X89085714Y-94444319D01*
X89085714Y-94444319D02*
X89466666Y-94444319D01*
X89466666Y-94444319D02*
X89561904Y-94491938D01*
X89561904Y-94491938D02*
X89609523Y-94539557D01*
X89609523Y-94539557D02*
X89657142Y-94634795D01*
X89657142Y-94634795D02*
X89657142Y-94777652D01*
X89657142Y-94777652D02*
X89609523Y-94872890D01*
X89609523Y-94872890D02*
X89561904Y-94920509D01*
X89561904Y-94920509D02*
X89466666Y-94968128D01*
X89466666Y-94968128D02*
X89085714Y-94968128D01*
X90609523Y-95444319D02*
X90038095Y-95444319D01*
X90323809Y-95444319D02*
X90323809Y-94444319D01*
X90323809Y-94444319D02*
X90228571Y-94587176D01*
X90228571Y-94587176D02*
X90133333Y-94682414D01*
X90133333Y-94682414D02*
X90038095Y-94730033D01*
X90990476Y-94539557D02*
X91038095Y-94491938D01*
X91038095Y-94491938D02*
X91133333Y-94444319D01*
X91133333Y-94444319D02*
X91371428Y-94444319D01*
X91371428Y-94444319D02*
X91466666Y-94491938D01*
X91466666Y-94491938D02*
X91514285Y-94539557D01*
X91514285Y-94539557D02*
X91561904Y-94634795D01*
X91561904Y-94634795D02*
X91561904Y-94730033D01*
X91561904Y-94730033D02*
X91514285Y-94872890D01*
X91514285Y-94872890D02*
X90942857Y-95444319D01*
X90942857Y-95444319D02*
X91561904Y-95444319D01*
X148233333Y-61159580D02*
X148185714Y-61207200D01*
X148185714Y-61207200D02*
X148042857Y-61254819D01*
X148042857Y-61254819D02*
X147947619Y-61254819D01*
X147947619Y-61254819D02*
X147804762Y-61207200D01*
X147804762Y-61207200D02*
X147709524Y-61111961D01*
X147709524Y-61111961D02*
X147661905Y-61016723D01*
X147661905Y-61016723D02*
X147614286Y-60826247D01*
X147614286Y-60826247D02*
X147614286Y-60683390D01*
X147614286Y-60683390D02*
X147661905Y-60492914D01*
X147661905Y-60492914D02*
X147709524Y-60397676D01*
X147709524Y-60397676D02*
X147804762Y-60302438D01*
X147804762Y-60302438D02*
X147947619Y-60254819D01*
X147947619Y-60254819D02*
X148042857Y-60254819D01*
X148042857Y-60254819D02*
X148185714Y-60302438D01*
X148185714Y-60302438D02*
X148233333Y-60350057D01*
X149233333Y-61159580D02*
X149185714Y-61207200D01*
X149185714Y-61207200D02*
X149042857Y-61254819D01*
X149042857Y-61254819D02*
X148947619Y-61254819D01*
X148947619Y-61254819D02*
X148804762Y-61207200D01*
X148804762Y-61207200D02*
X148709524Y-61111961D01*
X148709524Y-61111961D02*
X148661905Y-61016723D01*
X148661905Y-61016723D02*
X148614286Y-60826247D01*
X148614286Y-60826247D02*
X148614286Y-60683390D01*
X148614286Y-60683390D02*
X148661905Y-60492914D01*
X148661905Y-60492914D02*
X148709524Y-60397676D01*
X148709524Y-60397676D02*
X148804762Y-60302438D01*
X148804762Y-60302438D02*
X148947619Y-60254819D01*
X148947619Y-60254819D02*
X149042857Y-60254819D01*
X149042857Y-60254819D02*
X149185714Y-60302438D01*
X149185714Y-60302438D02*
X149233333Y-60350057D01*
X150185714Y-61254819D02*
X149614286Y-61254819D01*
X149900000Y-61254819D02*
X149900000Y-60254819D01*
X149900000Y-60254819D02*
X149804762Y-60397676D01*
X149804762Y-60397676D02*
X149709524Y-60492914D01*
X149709524Y-60492914D02*
X149614286Y-60540533D01*
X141703571Y-61304819D02*
X141370238Y-60828628D01*
X141132143Y-61304819D02*
X141132143Y-60304819D01*
X141132143Y-60304819D02*
X141513095Y-60304819D01*
X141513095Y-60304819D02*
X141608333Y-60352438D01*
X141608333Y-60352438D02*
X141655952Y-60400057D01*
X141655952Y-60400057D02*
X141703571Y-60495295D01*
X141703571Y-60495295D02*
X141703571Y-60638152D01*
X141703571Y-60638152D02*
X141655952Y-60733390D01*
X141655952Y-60733390D02*
X141608333Y-60781009D01*
X141608333Y-60781009D02*
X141513095Y-60828628D01*
X141513095Y-60828628D02*
X141132143Y-60828628D01*
X142608333Y-61304819D02*
X142132143Y-61304819D01*
X142132143Y-61304819D02*
X142132143Y-60304819D01*
X143465476Y-61304819D02*
X142894048Y-61304819D01*
X143179762Y-61304819D02*
X143179762Y-60304819D01*
X143179762Y-60304819D02*
X143084524Y-60447676D01*
X143084524Y-60447676D02*
X142989286Y-60542914D01*
X142989286Y-60542914D02*
X142894048Y-60590533D01*
X118174819Y-67216666D02*
X117698628Y-67549999D01*
X118174819Y-67788094D02*
X117174819Y-67788094D01*
X117174819Y-67788094D02*
X117174819Y-67407142D01*
X117174819Y-67407142D02*
X117222438Y-67311904D01*
X117222438Y-67311904D02*
X117270057Y-67264285D01*
X117270057Y-67264285D02*
X117365295Y-67216666D01*
X117365295Y-67216666D02*
X117508152Y-67216666D01*
X117508152Y-67216666D02*
X117603390Y-67264285D01*
X117603390Y-67264285D02*
X117651009Y-67311904D01*
X117651009Y-67311904D02*
X117698628Y-67407142D01*
X117698628Y-67407142D02*
X117698628Y-67788094D01*
X117174819Y-66359523D02*
X117174819Y-66549999D01*
X117174819Y-66549999D02*
X117222438Y-66645237D01*
X117222438Y-66645237D02*
X117270057Y-66692856D01*
X117270057Y-66692856D02*
X117412914Y-66788094D01*
X117412914Y-66788094D02*
X117603390Y-66835713D01*
X117603390Y-66835713D02*
X117984342Y-66835713D01*
X117984342Y-66835713D02*
X118079580Y-66788094D01*
X118079580Y-66788094D02*
X118127200Y-66740475D01*
X118127200Y-66740475D02*
X118174819Y-66645237D01*
X118174819Y-66645237D02*
X118174819Y-66454761D01*
X118174819Y-66454761D02*
X118127200Y-66359523D01*
X118127200Y-66359523D02*
X118079580Y-66311904D01*
X118079580Y-66311904D02*
X117984342Y-66264285D01*
X117984342Y-66264285D02*
X117746247Y-66264285D01*
X117746247Y-66264285D02*
X117651009Y-66311904D01*
X117651009Y-66311904D02*
X117603390Y-66359523D01*
X117603390Y-66359523D02*
X117555771Y-66454761D01*
X117555771Y-66454761D02*
X117555771Y-66645237D01*
X117555771Y-66645237D02*
X117603390Y-66740475D01*
X117603390Y-66740475D02*
X117651009Y-66788094D01*
X117651009Y-66788094D02*
X117746247Y-66835713D01*
X132766666Y-112699819D02*
X132766666Y-113414104D01*
X132766666Y-113414104D02*
X132719047Y-113556961D01*
X132719047Y-113556961D02*
X132623809Y-113652200D01*
X132623809Y-113652200D02*
X132480952Y-113699819D01*
X132480952Y-113699819D02*
X132385714Y-113699819D01*
X133195238Y-112795057D02*
X133242857Y-112747438D01*
X133242857Y-112747438D02*
X133338095Y-112699819D01*
X133338095Y-112699819D02*
X133576190Y-112699819D01*
X133576190Y-112699819D02*
X133671428Y-112747438D01*
X133671428Y-112747438D02*
X133719047Y-112795057D01*
X133719047Y-112795057D02*
X133766666Y-112890295D01*
X133766666Y-112890295D02*
X133766666Y-112985533D01*
X133766666Y-112985533D02*
X133719047Y-113128390D01*
X133719047Y-113128390D02*
X133147619Y-113699819D01*
X133147619Y-113699819D02*
X133766666Y-113699819D01*
X108809580Y-105541666D02*
X108857200Y-105589285D01*
X108857200Y-105589285D02*
X108904819Y-105732142D01*
X108904819Y-105732142D02*
X108904819Y-105827380D01*
X108904819Y-105827380D02*
X108857200Y-105970237D01*
X108857200Y-105970237D02*
X108761961Y-106065475D01*
X108761961Y-106065475D02*
X108666723Y-106113094D01*
X108666723Y-106113094D02*
X108476247Y-106160713D01*
X108476247Y-106160713D02*
X108333390Y-106160713D01*
X108333390Y-106160713D02*
X108142914Y-106113094D01*
X108142914Y-106113094D02*
X108047676Y-106065475D01*
X108047676Y-106065475D02*
X107952438Y-105970237D01*
X107952438Y-105970237D02*
X107904819Y-105827380D01*
X107904819Y-105827380D02*
X107904819Y-105732142D01*
X107904819Y-105732142D02*
X107952438Y-105589285D01*
X107952438Y-105589285D02*
X108000057Y-105541666D01*
X107904819Y-105208332D02*
X107904819Y-104541666D01*
X107904819Y-104541666D02*
X108904819Y-104970237D01*
X180683333Y-105834580D02*
X180635714Y-105882200D01*
X180635714Y-105882200D02*
X180492857Y-105929819D01*
X180492857Y-105929819D02*
X180397619Y-105929819D01*
X180397619Y-105929819D02*
X180254762Y-105882200D01*
X180254762Y-105882200D02*
X180159524Y-105786961D01*
X180159524Y-105786961D02*
X180111905Y-105691723D01*
X180111905Y-105691723D02*
X180064286Y-105501247D01*
X180064286Y-105501247D02*
X180064286Y-105358390D01*
X180064286Y-105358390D02*
X180111905Y-105167914D01*
X180111905Y-105167914D02*
X180159524Y-105072676D01*
X180159524Y-105072676D02*
X180254762Y-104977438D01*
X180254762Y-104977438D02*
X180397619Y-104929819D01*
X180397619Y-104929819D02*
X180492857Y-104929819D01*
X180492857Y-104929819D02*
X180635714Y-104977438D01*
X180635714Y-104977438D02*
X180683333Y-105025057D01*
X181635714Y-105929819D02*
X181064286Y-105929819D01*
X181350000Y-105929819D02*
X181350000Y-104929819D01*
X181350000Y-104929819D02*
X181254762Y-105072676D01*
X181254762Y-105072676D02*
X181159524Y-105167914D01*
X181159524Y-105167914D02*
X181064286Y-105215533D01*
X104309580Y-105541666D02*
X104357200Y-105589285D01*
X104357200Y-105589285D02*
X104404819Y-105732142D01*
X104404819Y-105732142D02*
X104404819Y-105827380D01*
X104404819Y-105827380D02*
X104357200Y-105970237D01*
X104357200Y-105970237D02*
X104261961Y-106065475D01*
X104261961Y-106065475D02*
X104166723Y-106113094D01*
X104166723Y-106113094D02*
X103976247Y-106160713D01*
X103976247Y-106160713D02*
X103833390Y-106160713D01*
X103833390Y-106160713D02*
X103642914Y-106113094D01*
X103642914Y-106113094D02*
X103547676Y-106065475D01*
X103547676Y-106065475D02*
X103452438Y-105970237D01*
X103452438Y-105970237D02*
X103404819Y-105827380D01*
X103404819Y-105827380D02*
X103404819Y-105732142D01*
X103404819Y-105732142D02*
X103452438Y-105589285D01*
X103452438Y-105589285D02*
X103500057Y-105541666D01*
X103833390Y-104970237D02*
X103785771Y-105065475D01*
X103785771Y-105065475D02*
X103738152Y-105113094D01*
X103738152Y-105113094D02*
X103642914Y-105160713D01*
X103642914Y-105160713D02*
X103595295Y-105160713D01*
X103595295Y-105160713D02*
X103500057Y-105113094D01*
X103500057Y-105113094D02*
X103452438Y-105065475D01*
X103452438Y-105065475D02*
X103404819Y-104970237D01*
X103404819Y-104970237D02*
X103404819Y-104779761D01*
X103404819Y-104779761D02*
X103452438Y-104684523D01*
X103452438Y-104684523D02*
X103500057Y-104636904D01*
X103500057Y-104636904D02*
X103595295Y-104589285D01*
X103595295Y-104589285D02*
X103642914Y-104589285D01*
X103642914Y-104589285D02*
X103738152Y-104636904D01*
X103738152Y-104636904D02*
X103785771Y-104684523D01*
X103785771Y-104684523D02*
X103833390Y-104779761D01*
X103833390Y-104779761D02*
X103833390Y-104970237D01*
X103833390Y-104970237D02*
X103881009Y-105065475D01*
X103881009Y-105065475D02*
X103928628Y-105113094D01*
X103928628Y-105113094D02*
X104023866Y-105160713D01*
X104023866Y-105160713D02*
X104214342Y-105160713D01*
X104214342Y-105160713D02*
X104309580Y-105113094D01*
X104309580Y-105113094D02*
X104357200Y-105065475D01*
X104357200Y-105065475D02*
X104404819Y-104970237D01*
X104404819Y-104970237D02*
X104404819Y-104779761D01*
X104404819Y-104779761D02*
X104357200Y-104684523D01*
X104357200Y-104684523D02*
X104309580Y-104636904D01*
X104309580Y-104636904D02*
X104214342Y-104589285D01*
X104214342Y-104589285D02*
X104023866Y-104589285D01*
X104023866Y-104589285D02*
X103928628Y-104636904D01*
X103928628Y-104636904D02*
X103881009Y-104684523D01*
X103881009Y-104684523D02*
X103833390Y-104779761D01*
X99809580Y-105541666D02*
X99857200Y-105589285D01*
X99857200Y-105589285D02*
X99904819Y-105732142D01*
X99904819Y-105732142D02*
X99904819Y-105827380D01*
X99904819Y-105827380D02*
X99857200Y-105970237D01*
X99857200Y-105970237D02*
X99761961Y-106065475D01*
X99761961Y-106065475D02*
X99666723Y-106113094D01*
X99666723Y-106113094D02*
X99476247Y-106160713D01*
X99476247Y-106160713D02*
X99333390Y-106160713D01*
X99333390Y-106160713D02*
X99142914Y-106113094D01*
X99142914Y-106113094D02*
X99047676Y-106065475D01*
X99047676Y-106065475D02*
X98952438Y-105970237D01*
X98952438Y-105970237D02*
X98904819Y-105827380D01*
X98904819Y-105827380D02*
X98904819Y-105732142D01*
X98904819Y-105732142D02*
X98952438Y-105589285D01*
X98952438Y-105589285D02*
X99000057Y-105541666D01*
X99904819Y-105065475D02*
X99904819Y-104874999D01*
X99904819Y-104874999D02*
X99857200Y-104779761D01*
X99857200Y-104779761D02*
X99809580Y-104732142D01*
X99809580Y-104732142D02*
X99666723Y-104636904D01*
X99666723Y-104636904D02*
X99476247Y-104589285D01*
X99476247Y-104589285D02*
X99095295Y-104589285D01*
X99095295Y-104589285D02*
X99000057Y-104636904D01*
X99000057Y-104636904D02*
X98952438Y-104684523D01*
X98952438Y-104684523D02*
X98904819Y-104779761D01*
X98904819Y-104779761D02*
X98904819Y-104970237D01*
X98904819Y-104970237D02*
X98952438Y-105065475D01*
X98952438Y-105065475D02*
X99000057Y-105113094D01*
X99000057Y-105113094D02*
X99095295Y-105160713D01*
X99095295Y-105160713D02*
X99333390Y-105160713D01*
X99333390Y-105160713D02*
X99428628Y-105113094D01*
X99428628Y-105113094D02*
X99476247Y-105065475D01*
X99476247Y-105065475D02*
X99523866Y-104970237D01*
X99523866Y-104970237D02*
X99523866Y-104779761D01*
X99523866Y-104779761D02*
X99476247Y-104684523D01*
X99476247Y-104684523D02*
X99428628Y-104636904D01*
X99428628Y-104636904D02*
X99333390Y-104589285D01*
X166470238Y-61454819D02*
X166136905Y-60978628D01*
X165898810Y-61454819D02*
X165898810Y-60454819D01*
X165898810Y-60454819D02*
X166279762Y-60454819D01*
X166279762Y-60454819D02*
X166375000Y-60502438D01*
X166375000Y-60502438D02*
X166422619Y-60550057D01*
X166422619Y-60550057D02*
X166470238Y-60645295D01*
X166470238Y-60645295D02*
X166470238Y-60788152D01*
X166470238Y-60788152D02*
X166422619Y-60883390D01*
X166422619Y-60883390D02*
X166375000Y-60931009D01*
X166375000Y-60931009D02*
X166279762Y-60978628D01*
X166279762Y-60978628D02*
X165898810Y-60978628D01*
X166898810Y-61454819D02*
X166898810Y-60454819D01*
X167898809Y-61454819D02*
X167327381Y-61454819D01*
X167613095Y-61454819D02*
X167613095Y-60454819D01*
X167613095Y-60454819D02*
X167517857Y-60597676D01*
X167517857Y-60597676D02*
X167422619Y-60692914D01*
X167422619Y-60692914D02*
X167327381Y-60740533D01*
X108266666Y-57454819D02*
X108266666Y-58169104D01*
X108266666Y-58169104D02*
X108219047Y-58311961D01*
X108219047Y-58311961D02*
X108123809Y-58407200D01*
X108123809Y-58407200D02*
X107980952Y-58454819D01*
X107980952Y-58454819D02*
X107885714Y-58454819D01*
X109219047Y-57454819D02*
X108742857Y-57454819D01*
X108742857Y-57454819D02*
X108695238Y-57931009D01*
X108695238Y-57931009D02*
X108742857Y-57883390D01*
X108742857Y-57883390D02*
X108838095Y-57835771D01*
X108838095Y-57835771D02*
X109076190Y-57835771D01*
X109076190Y-57835771D02*
X109171428Y-57883390D01*
X109171428Y-57883390D02*
X109219047Y-57931009D01*
X109219047Y-57931009D02*
X109266666Y-58026247D01*
X109266666Y-58026247D02*
X109266666Y-58264342D01*
X109266666Y-58264342D02*
X109219047Y-58359580D01*
X109219047Y-58359580D02*
X109171428Y-58407200D01*
X109171428Y-58407200D02*
X109076190Y-58454819D01*
X109076190Y-58454819D02*
X108838095Y-58454819D01*
X108838095Y-58454819D02*
X108742857Y-58407200D01*
X108742857Y-58407200D02*
X108695238Y-58359580D01*
X174499819Y-61917857D02*
X174023628Y-62251190D01*
X174499819Y-62489285D02*
X173499819Y-62489285D01*
X173499819Y-62489285D02*
X173499819Y-62108333D01*
X173499819Y-62108333D02*
X173547438Y-62013095D01*
X173547438Y-62013095D02*
X173595057Y-61965476D01*
X173595057Y-61965476D02*
X173690295Y-61917857D01*
X173690295Y-61917857D02*
X173833152Y-61917857D01*
X173833152Y-61917857D02*
X173928390Y-61965476D01*
X173928390Y-61965476D02*
X173976009Y-62013095D01*
X173976009Y-62013095D02*
X174023628Y-62108333D01*
X174023628Y-62108333D02*
X174023628Y-62489285D01*
X174499819Y-60965476D02*
X174499819Y-61536904D01*
X174499819Y-61251190D02*
X173499819Y-61251190D01*
X173499819Y-61251190D02*
X173642676Y-61346428D01*
X173642676Y-61346428D02*
X173737914Y-61441666D01*
X173737914Y-61441666D02*
X173785533Y-61536904D01*
X173499819Y-60346428D02*
X173499819Y-60251190D01*
X173499819Y-60251190D02*
X173547438Y-60155952D01*
X173547438Y-60155952D02*
X173595057Y-60108333D01*
X173595057Y-60108333D02*
X173690295Y-60060714D01*
X173690295Y-60060714D02*
X173880771Y-60013095D01*
X173880771Y-60013095D02*
X174118866Y-60013095D01*
X174118866Y-60013095D02*
X174309342Y-60060714D01*
X174309342Y-60060714D02*
X174404580Y-60108333D01*
X174404580Y-60108333D02*
X174452200Y-60155952D01*
X174452200Y-60155952D02*
X174499819Y-60251190D01*
X174499819Y-60251190D02*
X174499819Y-60346428D01*
X174499819Y-60346428D02*
X174452200Y-60441666D01*
X174452200Y-60441666D02*
X174404580Y-60489285D01*
X174404580Y-60489285D02*
X174309342Y-60536904D01*
X174309342Y-60536904D02*
X174118866Y-60584523D01*
X174118866Y-60584523D02*
X173880771Y-60584523D01*
X173880771Y-60584523D02*
X173690295Y-60536904D01*
X173690295Y-60536904D02*
X173595057Y-60489285D01*
X173595057Y-60489285D02*
X173547438Y-60441666D01*
X173547438Y-60441666D02*
X173499819Y-60346428D01*
X98609580Y-113617857D02*
X98657200Y-113665476D01*
X98657200Y-113665476D02*
X98704819Y-113808333D01*
X98704819Y-113808333D02*
X98704819Y-113903571D01*
X98704819Y-113903571D02*
X98657200Y-114046428D01*
X98657200Y-114046428D02*
X98561961Y-114141666D01*
X98561961Y-114141666D02*
X98466723Y-114189285D01*
X98466723Y-114189285D02*
X98276247Y-114236904D01*
X98276247Y-114236904D02*
X98133390Y-114236904D01*
X98133390Y-114236904D02*
X97942914Y-114189285D01*
X97942914Y-114189285D02*
X97847676Y-114141666D01*
X97847676Y-114141666D02*
X97752438Y-114046428D01*
X97752438Y-114046428D02*
X97704819Y-113903571D01*
X97704819Y-113903571D02*
X97704819Y-113808333D01*
X97704819Y-113808333D02*
X97752438Y-113665476D01*
X97752438Y-113665476D02*
X97800057Y-113617857D01*
X98704819Y-112665476D02*
X98704819Y-113236904D01*
X98704819Y-112951190D02*
X97704819Y-112951190D01*
X97704819Y-112951190D02*
X97847676Y-113046428D01*
X97847676Y-113046428D02*
X97942914Y-113141666D01*
X97942914Y-113141666D02*
X97990533Y-113236904D01*
X98704819Y-111713095D02*
X98704819Y-112284523D01*
X98704819Y-111998809D02*
X97704819Y-111998809D01*
X97704819Y-111998809D02*
X97847676Y-112094047D01*
X97847676Y-112094047D02*
X97942914Y-112189285D01*
X97942914Y-112189285D02*
X97990533Y-112284523D01*
X94109580Y-113617857D02*
X94157200Y-113665476D01*
X94157200Y-113665476D02*
X94204819Y-113808333D01*
X94204819Y-113808333D02*
X94204819Y-113903571D01*
X94204819Y-113903571D02*
X94157200Y-114046428D01*
X94157200Y-114046428D02*
X94061961Y-114141666D01*
X94061961Y-114141666D02*
X93966723Y-114189285D01*
X93966723Y-114189285D02*
X93776247Y-114236904D01*
X93776247Y-114236904D02*
X93633390Y-114236904D01*
X93633390Y-114236904D02*
X93442914Y-114189285D01*
X93442914Y-114189285D02*
X93347676Y-114141666D01*
X93347676Y-114141666D02*
X93252438Y-114046428D01*
X93252438Y-114046428D02*
X93204819Y-113903571D01*
X93204819Y-113903571D02*
X93204819Y-113808333D01*
X93204819Y-113808333D02*
X93252438Y-113665476D01*
X93252438Y-113665476D02*
X93300057Y-113617857D01*
X94204819Y-112665476D02*
X94204819Y-113236904D01*
X94204819Y-112951190D02*
X93204819Y-112951190D01*
X93204819Y-112951190D02*
X93347676Y-113046428D01*
X93347676Y-113046428D02*
X93442914Y-113141666D01*
X93442914Y-113141666D02*
X93490533Y-113236904D01*
X93204819Y-112046428D02*
X93204819Y-111951190D01*
X93204819Y-111951190D02*
X93252438Y-111855952D01*
X93252438Y-111855952D02*
X93300057Y-111808333D01*
X93300057Y-111808333D02*
X93395295Y-111760714D01*
X93395295Y-111760714D02*
X93585771Y-111713095D01*
X93585771Y-111713095D02*
X93823866Y-111713095D01*
X93823866Y-111713095D02*
X94014342Y-111760714D01*
X94014342Y-111760714D02*
X94109580Y-111808333D01*
X94109580Y-111808333D02*
X94157200Y-111855952D01*
X94157200Y-111855952D02*
X94204819Y-111951190D01*
X94204819Y-111951190D02*
X94204819Y-112046428D01*
X94204819Y-112046428D02*
X94157200Y-112141666D01*
X94157200Y-112141666D02*
X94109580Y-112189285D01*
X94109580Y-112189285D02*
X94014342Y-112236904D01*
X94014342Y-112236904D02*
X93823866Y-112284523D01*
X93823866Y-112284523D02*
X93585771Y-112284523D01*
X93585771Y-112284523D02*
X93395295Y-112236904D01*
X93395295Y-112236904D02*
X93300057Y-112189285D01*
X93300057Y-112189285D02*
X93252438Y-112141666D01*
X93252438Y-112141666D02*
X93204819Y-112046428D01*
X154559523Y-98554819D02*
X154226190Y-98078628D01*
X153988095Y-98554819D02*
X153988095Y-97554819D01*
X153988095Y-97554819D02*
X154369047Y-97554819D01*
X154369047Y-97554819D02*
X154464285Y-97602438D01*
X154464285Y-97602438D02*
X154511904Y-97650057D01*
X154511904Y-97650057D02*
X154559523Y-97745295D01*
X154559523Y-97745295D02*
X154559523Y-97888152D01*
X154559523Y-97888152D02*
X154511904Y-97983390D01*
X154511904Y-97983390D02*
X154464285Y-98031009D01*
X154464285Y-98031009D02*
X154369047Y-98078628D01*
X154369047Y-98078628D02*
X153988095Y-98078628D01*
X155559523Y-98459580D02*
X155511904Y-98507200D01*
X155511904Y-98507200D02*
X155369047Y-98554819D01*
X155369047Y-98554819D02*
X155273809Y-98554819D01*
X155273809Y-98554819D02*
X155130952Y-98507200D01*
X155130952Y-98507200D02*
X155035714Y-98411961D01*
X155035714Y-98411961D02*
X154988095Y-98316723D01*
X154988095Y-98316723D02*
X154940476Y-98126247D01*
X154940476Y-98126247D02*
X154940476Y-97983390D01*
X154940476Y-97983390D02*
X154988095Y-97792914D01*
X154988095Y-97792914D02*
X155035714Y-97697676D01*
X155035714Y-97697676D02*
X155130952Y-97602438D01*
X155130952Y-97602438D02*
X155273809Y-97554819D01*
X155273809Y-97554819D02*
X155369047Y-97554819D01*
X155369047Y-97554819D02*
X155511904Y-97602438D01*
X155511904Y-97602438D02*
X155559523Y-97650057D01*
X156464285Y-98554819D02*
X155988095Y-98554819D01*
X155988095Y-98554819D02*
X155988095Y-97554819D01*
X156797619Y-98173866D02*
X157559524Y-98173866D01*
X157178571Y-98554819D02*
X157178571Y-97792914D01*
X158559523Y-98554819D02*
X157988095Y-98554819D01*
X158273809Y-98554819D02*
X158273809Y-97554819D01*
X158273809Y-97554819D02*
X158178571Y-97697676D01*
X158178571Y-97697676D02*
X158083333Y-97792914D01*
X158083333Y-97792914D02*
X157988095Y-97840533D01*
X176616666Y-60304819D02*
X176616666Y-61019104D01*
X176616666Y-61019104D02*
X176569047Y-61161961D01*
X176569047Y-61161961D02*
X176473809Y-61257200D01*
X176473809Y-61257200D02*
X176330952Y-61304819D01*
X176330952Y-61304819D02*
X176235714Y-61304819D01*
X177092857Y-61304819D02*
X177092857Y-60304819D01*
X177092857Y-60304819D02*
X177473809Y-60304819D01*
X177473809Y-60304819D02*
X177569047Y-60352438D01*
X177569047Y-60352438D02*
X177616666Y-60400057D01*
X177616666Y-60400057D02*
X177664285Y-60495295D01*
X177664285Y-60495295D02*
X177664285Y-60638152D01*
X177664285Y-60638152D02*
X177616666Y-60733390D01*
X177616666Y-60733390D02*
X177569047Y-60781009D01*
X177569047Y-60781009D02*
X177473809Y-60828628D01*
X177473809Y-60828628D02*
X177092857Y-60828628D01*
X178616666Y-61304819D02*
X178045238Y-61304819D01*
X178330952Y-61304819D02*
X178330952Y-60304819D01*
X178330952Y-60304819D02*
X178235714Y-60447676D01*
X178235714Y-60447676D02*
X178140476Y-60542914D01*
X178140476Y-60542914D02*
X178045238Y-60590533D01*
X180783333Y-101334580D02*
X180735714Y-101382200D01*
X180735714Y-101382200D02*
X180592857Y-101429819D01*
X180592857Y-101429819D02*
X180497619Y-101429819D01*
X180497619Y-101429819D02*
X180354762Y-101382200D01*
X180354762Y-101382200D02*
X180259524Y-101286961D01*
X180259524Y-101286961D02*
X180211905Y-101191723D01*
X180211905Y-101191723D02*
X180164286Y-101001247D01*
X180164286Y-101001247D02*
X180164286Y-100858390D01*
X180164286Y-100858390D02*
X180211905Y-100667914D01*
X180211905Y-100667914D02*
X180259524Y-100572676D01*
X180259524Y-100572676D02*
X180354762Y-100477438D01*
X180354762Y-100477438D02*
X180497619Y-100429819D01*
X180497619Y-100429819D02*
X180592857Y-100429819D01*
X180592857Y-100429819D02*
X180735714Y-100477438D01*
X180735714Y-100477438D02*
X180783333Y-100525057D01*
X181164286Y-100525057D02*
X181211905Y-100477438D01*
X181211905Y-100477438D02*
X181307143Y-100429819D01*
X181307143Y-100429819D02*
X181545238Y-100429819D01*
X181545238Y-100429819D02*
X181640476Y-100477438D01*
X181640476Y-100477438D02*
X181688095Y-100525057D01*
X181688095Y-100525057D02*
X181735714Y-100620295D01*
X181735714Y-100620295D02*
X181735714Y-100715533D01*
X181735714Y-100715533D02*
X181688095Y-100858390D01*
X181688095Y-100858390D02*
X181116667Y-101429819D01*
X181116667Y-101429819D02*
X181735714Y-101429819D01*
X170458333Y-96884580D02*
X170410714Y-96932200D01*
X170410714Y-96932200D02*
X170267857Y-96979819D01*
X170267857Y-96979819D02*
X170172619Y-96979819D01*
X170172619Y-96979819D02*
X170029762Y-96932200D01*
X170029762Y-96932200D02*
X169934524Y-96836961D01*
X169934524Y-96836961D02*
X169886905Y-96741723D01*
X169886905Y-96741723D02*
X169839286Y-96551247D01*
X169839286Y-96551247D02*
X169839286Y-96408390D01*
X169839286Y-96408390D02*
X169886905Y-96217914D01*
X169886905Y-96217914D02*
X169934524Y-96122676D01*
X169934524Y-96122676D02*
X170029762Y-96027438D01*
X170029762Y-96027438D02*
X170172619Y-95979819D01*
X170172619Y-95979819D02*
X170267857Y-95979819D01*
X170267857Y-95979819D02*
X170410714Y-96027438D01*
X170410714Y-96027438D02*
X170458333Y-96075057D01*
X171315476Y-96313152D02*
X171315476Y-96979819D01*
X171077381Y-95932200D02*
X170839286Y-96646485D01*
X170839286Y-96646485D02*
X171458333Y-96646485D01*
X123924819Y-86216666D02*
X123448628Y-86549999D01*
X123924819Y-86788094D02*
X122924819Y-86788094D01*
X122924819Y-86788094D02*
X122924819Y-86407142D01*
X122924819Y-86407142D02*
X122972438Y-86311904D01*
X122972438Y-86311904D02*
X123020057Y-86264285D01*
X123020057Y-86264285D02*
X123115295Y-86216666D01*
X123115295Y-86216666D02*
X123258152Y-86216666D01*
X123258152Y-86216666D02*
X123353390Y-86264285D01*
X123353390Y-86264285D02*
X123401009Y-86311904D01*
X123401009Y-86311904D02*
X123448628Y-86407142D01*
X123448628Y-86407142D02*
X123448628Y-86788094D01*
X122924819Y-85883332D02*
X122924819Y-85216666D01*
X122924819Y-85216666D02*
X123924819Y-85645237D01*
X118174819Y-86216666D02*
X117698628Y-86549999D01*
X118174819Y-86788094D02*
X117174819Y-86788094D01*
X117174819Y-86788094D02*
X117174819Y-86407142D01*
X117174819Y-86407142D02*
X117222438Y-86311904D01*
X117222438Y-86311904D02*
X117270057Y-86264285D01*
X117270057Y-86264285D02*
X117365295Y-86216666D01*
X117365295Y-86216666D02*
X117508152Y-86216666D01*
X117508152Y-86216666D02*
X117603390Y-86264285D01*
X117603390Y-86264285D02*
X117651009Y-86311904D01*
X117651009Y-86311904D02*
X117698628Y-86407142D01*
X117698628Y-86407142D02*
X117698628Y-86788094D01*
X117508152Y-85359523D02*
X118174819Y-85359523D01*
X117127200Y-85597618D02*
X117841485Y-85835713D01*
X117841485Y-85835713D02*
X117841485Y-85216666D01*
X112424819Y-86216666D02*
X111948628Y-86549999D01*
X112424819Y-86788094D02*
X111424819Y-86788094D01*
X111424819Y-86788094D02*
X111424819Y-86407142D01*
X111424819Y-86407142D02*
X111472438Y-86311904D01*
X111472438Y-86311904D02*
X111520057Y-86264285D01*
X111520057Y-86264285D02*
X111615295Y-86216666D01*
X111615295Y-86216666D02*
X111758152Y-86216666D01*
X111758152Y-86216666D02*
X111853390Y-86264285D01*
X111853390Y-86264285D02*
X111901009Y-86311904D01*
X111901009Y-86311904D02*
X111948628Y-86407142D01*
X111948628Y-86407142D02*
X111948628Y-86788094D01*
X112424819Y-85264285D02*
X112424819Y-85835713D01*
X112424819Y-85549999D02*
X111424819Y-85549999D01*
X111424819Y-85549999D02*
X111567676Y-85645237D01*
X111567676Y-85645237D02*
X111662914Y-85740475D01*
X111662914Y-85740475D02*
X111710533Y-85835713D01*
X94374819Y-77242857D02*
X93898628Y-77576190D01*
X94374819Y-77814285D02*
X93374819Y-77814285D01*
X93374819Y-77814285D02*
X93374819Y-77433333D01*
X93374819Y-77433333D02*
X93422438Y-77338095D01*
X93422438Y-77338095D02*
X93470057Y-77290476D01*
X93470057Y-77290476D02*
X93565295Y-77242857D01*
X93565295Y-77242857D02*
X93708152Y-77242857D01*
X93708152Y-77242857D02*
X93803390Y-77290476D01*
X93803390Y-77290476D02*
X93851009Y-77338095D01*
X93851009Y-77338095D02*
X93898628Y-77433333D01*
X93898628Y-77433333D02*
X93898628Y-77814285D01*
X94374819Y-76290476D02*
X94374819Y-76861904D01*
X94374819Y-76576190D02*
X93374819Y-76576190D01*
X93374819Y-76576190D02*
X93517676Y-76671428D01*
X93517676Y-76671428D02*
X93612914Y-76766666D01*
X93612914Y-76766666D02*
X93660533Y-76861904D01*
X93374819Y-75433333D02*
X93374819Y-75623809D01*
X93374819Y-75623809D02*
X93422438Y-75719047D01*
X93422438Y-75719047D02*
X93470057Y-75766666D01*
X93470057Y-75766666D02*
X93612914Y-75861904D01*
X93612914Y-75861904D02*
X93803390Y-75909523D01*
X93803390Y-75909523D02*
X94184342Y-75909523D01*
X94184342Y-75909523D02*
X94279580Y-75861904D01*
X94279580Y-75861904D02*
X94327200Y-75814285D01*
X94327200Y-75814285D02*
X94374819Y-75719047D01*
X94374819Y-75719047D02*
X94374819Y-75528571D01*
X94374819Y-75528571D02*
X94327200Y-75433333D01*
X94327200Y-75433333D02*
X94279580Y-75385714D01*
X94279580Y-75385714D02*
X94184342Y-75338095D01*
X94184342Y-75338095D02*
X93946247Y-75338095D01*
X93946247Y-75338095D02*
X93851009Y-75385714D01*
X93851009Y-75385714D02*
X93803390Y-75433333D01*
X93803390Y-75433333D02*
X93755771Y-75528571D01*
X93755771Y-75528571D02*
X93755771Y-75719047D01*
X93755771Y-75719047D02*
X93803390Y-75814285D01*
X93803390Y-75814285D02*
X93851009Y-75861904D01*
X93851009Y-75861904D02*
X93946247Y-75909523D01*
X163554819Y-61845238D02*
X163078628Y-62178571D01*
X163554819Y-62416666D02*
X162554819Y-62416666D01*
X162554819Y-62416666D02*
X162554819Y-62035714D01*
X162554819Y-62035714D02*
X162602438Y-61940476D01*
X162602438Y-61940476D02*
X162650057Y-61892857D01*
X162650057Y-61892857D02*
X162745295Y-61845238D01*
X162745295Y-61845238D02*
X162888152Y-61845238D01*
X162888152Y-61845238D02*
X162983390Y-61892857D01*
X162983390Y-61892857D02*
X163031009Y-61940476D01*
X163031009Y-61940476D02*
X163078628Y-62035714D01*
X163078628Y-62035714D02*
X163078628Y-62416666D01*
X163031009Y-61083333D02*
X163031009Y-61416666D01*
X163554819Y-61416666D02*
X162554819Y-61416666D01*
X162554819Y-61416666D02*
X162554819Y-60940476D01*
X163554819Y-60035714D02*
X163554819Y-60607142D01*
X163554819Y-60321428D02*
X162554819Y-60321428D01*
X162554819Y-60321428D02*
X162697676Y-60416666D01*
X162697676Y-60416666D02*
X162792914Y-60511904D01*
X162792914Y-60511904D02*
X162840533Y-60607142D01*
X188209166Y-57504819D02*
X188209166Y-58219104D01*
X188209166Y-58219104D02*
X188161547Y-58361961D01*
X188161547Y-58361961D02*
X188066309Y-58457200D01*
X188066309Y-58457200D02*
X187923452Y-58504819D01*
X187923452Y-58504819D02*
X187828214Y-58504819D01*
X188828214Y-57933390D02*
X188732976Y-57885771D01*
X188732976Y-57885771D02*
X188685357Y-57838152D01*
X188685357Y-57838152D02*
X188637738Y-57742914D01*
X188637738Y-57742914D02*
X188637738Y-57695295D01*
X188637738Y-57695295D02*
X188685357Y-57600057D01*
X188685357Y-57600057D02*
X188732976Y-57552438D01*
X188732976Y-57552438D02*
X188828214Y-57504819D01*
X188828214Y-57504819D02*
X189018690Y-57504819D01*
X189018690Y-57504819D02*
X189113928Y-57552438D01*
X189113928Y-57552438D02*
X189161547Y-57600057D01*
X189161547Y-57600057D02*
X189209166Y-57695295D01*
X189209166Y-57695295D02*
X189209166Y-57742914D01*
X189209166Y-57742914D02*
X189161547Y-57838152D01*
X189161547Y-57838152D02*
X189113928Y-57885771D01*
X189113928Y-57885771D02*
X189018690Y-57933390D01*
X189018690Y-57933390D02*
X188828214Y-57933390D01*
X188828214Y-57933390D02*
X188732976Y-57981009D01*
X188732976Y-57981009D02*
X188685357Y-58028628D01*
X188685357Y-58028628D02*
X188637738Y-58123866D01*
X188637738Y-58123866D02*
X188637738Y-58314342D01*
X188637738Y-58314342D02*
X188685357Y-58409580D01*
X188685357Y-58409580D02*
X188732976Y-58457200D01*
X188732976Y-58457200D02*
X188828214Y-58504819D01*
X188828214Y-58504819D02*
X189018690Y-58504819D01*
X189018690Y-58504819D02*
X189113928Y-58457200D01*
X189113928Y-58457200D02*
X189161547Y-58409580D01*
X189161547Y-58409580D02*
X189209166Y-58314342D01*
X189209166Y-58314342D02*
X189209166Y-58123866D01*
X189209166Y-58123866D02*
X189161547Y-58028628D01*
X189161547Y-58028628D02*
X189113928Y-57981009D01*
X189113928Y-57981009D02*
X189018690Y-57933390D01*
X94616666Y-57459819D02*
X94616666Y-58174104D01*
X94616666Y-58174104D02*
X94569047Y-58316961D01*
X94569047Y-58316961D02*
X94473809Y-58412200D01*
X94473809Y-58412200D02*
X94330952Y-58459819D01*
X94330952Y-58459819D02*
X94235714Y-58459819D01*
X95521428Y-57793152D02*
X95521428Y-58459819D01*
X95283333Y-57412200D02*
X95045238Y-58126485D01*
X95045238Y-58126485D02*
X95664285Y-58126485D01*
D13*
X99578700Y-98669500D02*
G75*
G02*
X99172300Y-98669500I-203200J0D01*
G01*
X99172300Y-98669500D02*
G75*
G02*
X99578700Y-98669500I203200J0D01*
G01*
X97470500Y-104638500D02*
X86929500Y-104638500D01*
X97597500Y-101082500D02*
X86802500Y-101082500D01*
X86802500Y-101082500D02*
X86802500Y-105908500D01*
X86802500Y-105908500D02*
X97597500Y-105908500D01*
X97597500Y-105908500D02*
X97597500Y-101082500D01*
D14*
X171560000Y-50367500D02*
X171560000Y-53967500D01*
X173440000Y-48487500D02*
X177040000Y-48487500D01*
X173440000Y-55847500D02*
X177040000Y-55847500D01*
X178920000Y-50367500D02*
X178920000Y-53967500D01*
D15*
X174750653Y-76960426D02*
G75*
G02*
X174750000Y-82040000I-1659153J-2539574D01*
G01*
X159191483Y-92199031D02*
G75*
G02*
X151410000Y-92200000I-3891483J5956531D01*
G01*
X151408517Y-66800969D02*
G75*
G02*
X159190000Y-66800000I3891483J-5956531D01*
G01*
X150440000Y-93380000D02*
G75*
G02*
X150440000Y-93280000I0J50000D01*
G01*
X150440000Y-93280000D02*
G75*
G02*
X150440000Y-93380000I0J-50000D01*
G01*
X150440000Y-93280000D02*
G75*
G02*
X150440000Y-93380000I0J-50000D01*
G01*
X135849347Y-82039574D02*
G75*
G02*
X135850000Y-76960000I1659152J2539574D01*
G01*
X174750000Y-82040000D02*
X174750000Y-82040000D01*
X174750000Y-76960000D02*
X159190000Y-66800000D01*
X159190000Y-92200000D02*
X174750000Y-82040000D01*
X159190000Y-66800000D02*
X159190000Y-66800000D01*
X151410000Y-92200000D02*
X151410000Y-92200000D01*
X151410000Y-66800000D02*
X135850000Y-76960000D01*
X150440000Y-93380000D02*
X150440000Y-93380000D01*
X150440000Y-93380000D02*
X150440000Y-93380000D01*
X150440000Y-93280000D02*
X150440000Y-93280000D01*
X135850000Y-82040000D02*
X151410000Y-92200000D01*
X135850000Y-76960000D02*
X135850000Y-76960000D01*
D14*
X181225000Y-68050000D02*
X183225000Y-68050000D01*
X181225000Y-70850000D02*
X181225000Y-68050000D01*
X183225000Y-68050000D02*
X183225000Y-70850000D01*
X183225000Y-70850000D02*
X181225000Y-70850000D01*
X184527064Y-73990000D02*
X183072936Y-73990000D01*
X184527064Y-75810000D02*
X183072936Y-75810000D01*
X180540000Y-60625000D02*
X180540000Y-64925000D01*
X180540000Y-60625000D02*
X186350000Y-60625000D01*
X180540000Y-64925000D02*
X186350000Y-64925000D01*
X144747064Y-111500000D02*
X143292936Y-111500000D01*
X144747064Y-109680000D02*
X143292936Y-109680000D01*
X146450000Y-115347064D02*
X146450000Y-113892936D01*
X144630000Y-115347064D02*
X144630000Y-113892936D01*
X150542936Y-109680000D02*
X151997064Y-109680000D01*
X150542936Y-111500000D02*
X151997064Y-111500000D01*
X153265000Y-123405000D02*
X152385000Y-123405000D01*
X152825000Y-122795000D01*
X153265000Y-123405000D01*
G36*
X153265000Y-123405000D02*
G01*
X152385000Y-123405000D01*
X152825000Y-122795000D01*
X153265000Y-123405000D01*
G37*
X155333000Y-116597000D02*
G75*
G02*
X157316923Y-116597621I992000J122000D01*
G01*
X151841000Y-116295000D02*
G75*
G02*
X153808978Y-116294882I984000J-180000D01*
G01*
X158695000Y-114255000D02*
X158695000Y-122795000D01*
X157725000Y-115075000D02*
X157725000Y-116976000D01*
X157724000Y-119175000D02*
X158695000Y-119175000D01*
X154925000Y-115075000D02*
X157725000Y-115075000D01*
X154925000Y-115075000D02*
X154925000Y-116976000D01*
X154605000Y-119175000D02*
X154926000Y-119175000D01*
X154225000Y-115075000D02*
X154225000Y-116295000D01*
X153125000Y-122795000D02*
X158695000Y-122795000D01*
X151425000Y-115075000D02*
X154225000Y-115075000D01*
X151425000Y-115075000D02*
X151425000Y-116295000D01*
X150455000Y-122795000D02*
X152525000Y-122795000D01*
X150455000Y-119175000D02*
X151045000Y-119175000D01*
X150455000Y-114255000D02*
X158695000Y-114255000D01*
X150455000Y-114255000D02*
X150455000Y-122795000D01*
X155572936Y-61790000D02*
X157027064Y-61790000D01*
X155572936Y-63610000D02*
X157027064Y-63610000D01*
X83840000Y-74422936D02*
X83840000Y-78777064D01*
X87260000Y-74422936D02*
X87260000Y-78777064D01*
X119140000Y-74372936D02*
X119140000Y-78727064D01*
X122560000Y-74372936D02*
X122560000Y-78727064D01*
X103690000Y-113686252D02*
X103690000Y-112263748D01*
X105510000Y-113686252D02*
X105510000Y-112263748D01*
X113390000Y-74372936D02*
X113390000Y-78727064D01*
X116810000Y-74372936D02*
X116810000Y-78727064D01*
X77650000Y-54835000D02*
X77650000Y-57075000D01*
X77650000Y-57075000D02*
X79650000Y-57075000D01*
X77890000Y-48415000D02*
X77890000Y-56835000D01*
X77890000Y-48415000D02*
X86010000Y-48415000D01*
X77890000Y-53276000D02*
X78660000Y-53276000D01*
X77890000Y-56835000D02*
X86010000Y-56835000D01*
X78800000Y-49175000D02*
X78800000Y-50635000D01*
X78800000Y-49175000D02*
X81600000Y-49175000D01*
X81600000Y-49175000D02*
X81600000Y-50635000D01*
X81740000Y-53276000D02*
X82567000Y-53276000D01*
X82300000Y-49175000D02*
X82300000Y-51486000D01*
X82300000Y-49175000D02*
X85100000Y-49175000D01*
X82300000Y-52864000D02*
X82300000Y-52925000D01*
X82300000Y-52925000D02*
X82301000Y-52925000D01*
X84834000Y-53276000D02*
X86010000Y-53276000D01*
X85100000Y-49175000D02*
X85100000Y-51486000D01*
X85100000Y-52864000D02*
X85100000Y-52925000D01*
X85100000Y-52925000D02*
X85100000Y-52925000D01*
X86010000Y-48415000D02*
X86010000Y-56835000D01*
X79202110Y-50645566D02*
G75*
G02*
X81198000Y-50644000I997890J70566D01*
G01*
X82760085Y-50917233D02*
G75*
G02*
X84640000Y-50917000I939915J342233D01*
G01*
X98327064Y-92200500D02*
X96872936Y-92200500D01*
X98327064Y-94020500D02*
X96872936Y-94020500D01*
X169913748Y-101965000D02*
X171336252Y-101965000D01*
X169913748Y-103785000D02*
X171336252Y-103785000D01*
X169913748Y-106465000D02*
X171336252Y-106465000D01*
X169913748Y-108285000D02*
X171336252Y-108285000D01*
X83840000Y-64922936D02*
X83840000Y-69277064D01*
X87260000Y-64922936D02*
X87260000Y-69277064D01*
X107640000Y-74372936D02*
X107640000Y-78727064D01*
X111060000Y-74372936D02*
X111060000Y-78727064D01*
X107640000Y-64872936D02*
X107640000Y-69227064D01*
X111060000Y-64872936D02*
X111060000Y-69227064D01*
X119140000Y-64872936D02*
X119140000Y-69227064D01*
X122560000Y-64872936D02*
X122560000Y-69227064D01*
X169950000Y-120805000D02*
X169950000Y-123045000D01*
X169950000Y-123045000D02*
X171950000Y-123045000D01*
X170190000Y-114385000D02*
X170190000Y-122805000D01*
X170190000Y-114385000D02*
X178310000Y-114385000D01*
X170190000Y-119246000D02*
X170960000Y-119246000D01*
X170190000Y-122805000D02*
X178310000Y-122805000D01*
X171100000Y-115145000D02*
X171100000Y-116605000D01*
X171100000Y-115145000D02*
X173900000Y-115145000D01*
X173900000Y-115145000D02*
X173900000Y-116605000D01*
X174040000Y-119246000D02*
X174867000Y-119246000D01*
X174600000Y-115145000D02*
X174600000Y-117456000D01*
X174600000Y-115145000D02*
X177400000Y-115145000D01*
X174600000Y-118834000D02*
X174600000Y-118895000D01*
X174600000Y-118895000D02*
X174601000Y-118895000D01*
X177134000Y-119246000D02*
X178310000Y-119246000D01*
X177400000Y-115145000D02*
X177400000Y-117456000D01*
X177400000Y-118834000D02*
X177400000Y-118895000D01*
X177400000Y-118895000D02*
X177400000Y-118895000D01*
X178310000Y-114385000D02*
X178310000Y-122805000D01*
X171502110Y-116615566D02*
G75*
G02*
X173498000Y-116614000I997890J70566D01*
G01*
X175060085Y-116887233D02*
G75*
G02*
X176940000Y-116887000I939915J342233D01*
G01*
X181561252Y-97465000D02*
X180138748Y-97465000D01*
X181561252Y-99285000D02*
X180138748Y-99285000D01*
X117300000Y-54830000D02*
X117300000Y-57070000D01*
X117300000Y-57070000D02*
X119300000Y-57070000D01*
X117540000Y-48410000D02*
X117540000Y-56830000D01*
X117540000Y-48410000D02*
X125660000Y-48410000D01*
X117540000Y-53271000D02*
X118310000Y-53271000D01*
X117540000Y-56830000D02*
X125660000Y-56830000D01*
X118450000Y-49170000D02*
X118450000Y-50630000D01*
X118450000Y-49170000D02*
X121250000Y-49170000D01*
X121250000Y-49170000D02*
X121250000Y-50630000D01*
X121390000Y-53271000D02*
X122217000Y-53271000D01*
X121950000Y-49170000D02*
X121950000Y-51481000D01*
X121950000Y-49170000D02*
X124750000Y-49170000D01*
X121950000Y-52859000D02*
X121950000Y-52920000D01*
X121950000Y-52920000D02*
X121951000Y-52920000D01*
X124484000Y-53271000D02*
X125660000Y-53271000D01*
X124750000Y-49170000D02*
X124750000Y-51481000D01*
X124750000Y-52859000D02*
X124750000Y-52920000D01*
X124750000Y-52920000D02*
X124750000Y-52920000D01*
X125660000Y-48410000D02*
X125660000Y-56830000D01*
X118852110Y-50640566D02*
G75*
G02*
X120848000Y-50639000I997890J70566D01*
G01*
X122410085Y-50912233D02*
G75*
G02*
X124290000Y-50912000I939915J342233D01*
G01*
X89590000Y-64922936D02*
X89590000Y-69277064D01*
X93010000Y-64922936D02*
X93010000Y-69277064D01*
X91027064Y-92259500D02*
X89572936Y-92259500D01*
X91027064Y-94079500D02*
X89572936Y-94079500D01*
X148188748Y-61790000D02*
X149611252Y-61790000D01*
X148188748Y-63610000D02*
X149611252Y-63610000D01*
X143002064Y-61840000D02*
X141547936Y-61840000D01*
X143002064Y-63660000D02*
X141547936Y-63660000D01*
X113390000Y-64872936D02*
X113390000Y-69227064D01*
X116810000Y-64872936D02*
X116810000Y-69227064D01*
X128900000Y-120805000D02*
X128900000Y-123045000D01*
X128900000Y-123045000D02*
X130900000Y-123045000D01*
X129140000Y-114385000D02*
X129140000Y-122805000D01*
X129140000Y-114385000D02*
X137260000Y-114385000D01*
X129140000Y-119246000D02*
X129910000Y-119246000D01*
X129140000Y-122805000D02*
X137260000Y-122805000D01*
X130050000Y-115145000D02*
X130050000Y-116605000D01*
X130050000Y-115145000D02*
X132850000Y-115145000D01*
X132850000Y-115145000D02*
X132850000Y-116605000D01*
X132990000Y-119246000D02*
X133817000Y-119246000D01*
X133550000Y-115145000D02*
X133550000Y-117456000D01*
X133550000Y-115145000D02*
X136350000Y-115145000D01*
X133550000Y-118834000D02*
X133550000Y-118895000D01*
X133550000Y-118895000D02*
X133551000Y-118895000D01*
X136084000Y-119246000D02*
X137260000Y-119246000D01*
X136350000Y-115145000D02*
X136350000Y-117456000D01*
X136350000Y-118834000D02*
X136350000Y-118895000D01*
X136350000Y-118895000D02*
X136350000Y-118895000D01*
X137260000Y-114385000D02*
X137260000Y-122805000D01*
X130452110Y-116615566D02*
G75*
G02*
X132448000Y-116614000I997890J70566D01*
G01*
X134010085Y-116887233D02*
G75*
G02*
X135890000Y-116887000I939915J342233D01*
G01*
X109540000Y-104663748D02*
X109540000Y-106086252D01*
X111360000Y-104663748D02*
X111360000Y-106086252D01*
X181561252Y-106465000D02*
X180138748Y-106465000D01*
X181561252Y-108285000D02*
X180138748Y-108285000D01*
X105040000Y-104663748D02*
X105040000Y-106086252D01*
X106860000Y-104663748D02*
X106860000Y-106086252D01*
X100540000Y-104663748D02*
X100540000Y-106086252D01*
X102360000Y-104663748D02*
X102360000Y-106086252D01*
X166147936Y-61890000D02*
X167602064Y-61890000D01*
X166147936Y-63710000D02*
X167602064Y-63710000D01*
X104300000Y-54830000D02*
X104300000Y-57070000D01*
X104300000Y-57070000D02*
X106300000Y-57070000D01*
X104540000Y-48410000D02*
X104540000Y-56830000D01*
X104540000Y-48410000D02*
X112660000Y-48410000D01*
X104540000Y-53271000D02*
X105310000Y-53271000D01*
X104540000Y-56830000D02*
X112660000Y-56830000D01*
X105450000Y-49170000D02*
X105450000Y-50630000D01*
X105450000Y-49170000D02*
X108250000Y-49170000D01*
X108250000Y-49170000D02*
X108250000Y-50630000D01*
X108390000Y-53271000D02*
X109217000Y-53271000D01*
X108950000Y-49170000D02*
X108950000Y-51481000D01*
X108950000Y-49170000D02*
X111750000Y-49170000D01*
X108950000Y-52859000D02*
X108950000Y-52920000D01*
X108950000Y-52920000D02*
X108951000Y-52920000D01*
X111484000Y-53271000D02*
X112660000Y-53271000D01*
X111750000Y-49170000D02*
X111750000Y-51481000D01*
X111750000Y-52859000D02*
X111750000Y-52920000D01*
X111750000Y-52920000D02*
X111750000Y-52920000D01*
X112660000Y-48410000D02*
X112660000Y-56830000D01*
X105852110Y-50640566D02*
G75*
G02*
X107848000Y-50639000I997890J70566D01*
G01*
X109410085Y-50912233D02*
G75*
G02*
X111290000Y-50912000I939915J342233D01*
G01*
X171315000Y-60547936D02*
X171315000Y-62002064D01*
X173135000Y-60547936D02*
X173135000Y-62002064D01*
X99190000Y-113686252D02*
X99190000Y-112263748D01*
X101010000Y-113686252D02*
X101010000Y-112263748D01*
X94690000Y-113686252D02*
X94690000Y-112263748D01*
X96510000Y-113686252D02*
X96510000Y-112263748D01*
X155522936Y-95290000D02*
X156977064Y-95290000D01*
X155522936Y-97110000D02*
X156977064Y-97110000D01*
X176050000Y-61800000D02*
X178850000Y-61800000D01*
X176050000Y-63800000D02*
X176050000Y-61800000D01*
X178850000Y-61800000D02*
X178850000Y-63800000D01*
X178850000Y-63800000D02*
X176050000Y-63800000D01*
X181561252Y-101965000D02*
X180138748Y-101965000D01*
X181561252Y-103785000D02*
X180138748Y-103785000D01*
X169913748Y-97465000D02*
X171336252Y-97465000D01*
X169913748Y-99285000D02*
X171336252Y-99285000D01*
X119140000Y-83872936D02*
X119140000Y-88227064D01*
X122560000Y-83872936D02*
X122560000Y-88227064D01*
X113390000Y-83872936D02*
X113390000Y-88227064D01*
X116810000Y-83872936D02*
X116810000Y-88227064D01*
X107640000Y-83872936D02*
X107640000Y-88227064D01*
X111060000Y-83872936D02*
X111060000Y-88227064D01*
X89590000Y-74422936D02*
X89590000Y-78777064D01*
X93010000Y-74422936D02*
X93010000Y-78777064D01*
X160390000Y-60522936D02*
X160390000Y-61977064D01*
X162210000Y-60522936D02*
X162210000Y-61977064D01*
X187232500Y-57497500D02*
X186352500Y-57497500D01*
X186792500Y-56887500D01*
X187232500Y-57497500D01*
G36*
X187232500Y-57497500D02*
G01*
X186352500Y-57497500D01*
X186792500Y-56887500D01*
X187232500Y-57497500D01*
G37*
X189300500Y-50689500D02*
G75*
G02*
X191284423Y-50690121I992000J122000D01*
G01*
X185808500Y-50387500D02*
G75*
G02*
X187776478Y-50387382I984000J-180000D01*
G01*
X192662500Y-48347500D02*
X192662500Y-56887500D01*
X191692500Y-49167500D02*
X191692500Y-51068500D01*
X191691500Y-53267500D02*
X192662500Y-53267500D01*
X188892500Y-49167500D02*
X191692500Y-49167500D01*
X188892500Y-49167500D02*
X188892500Y-51068500D01*
X188572500Y-53267500D02*
X188893500Y-53267500D01*
X188192500Y-49167500D02*
X188192500Y-50387500D01*
X187092500Y-56887500D02*
X192662500Y-56887500D01*
X185392500Y-49167500D02*
X188192500Y-49167500D01*
X185392500Y-49167500D02*
X185392500Y-50387500D01*
X184422500Y-56887500D02*
X186492500Y-56887500D01*
X184422500Y-53267500D02*
X185012500Y-53267500D01*
X184422500Y-48347500D02*
X192662500Y-48347500D01*
X184422500Y-48347500D02*
X184422500Y-56887500D01*
X90650000Y-54835000D02*
X90650000Y-57075000D01*
X90650000Y-57075000D02*
X92650000Y-57075000D01*
X90890000Y-48415000D02*
X90890000Y-56835000D01*
X90890000Y-48415000D02*
X99010000Y-48415000D01*
X90890000Y-53276000D02*
X91660000Y-53276000D01*
X90890000Y-56835000D02*
X99010000Y-56835000D01*
X91800000Y-49175000D02*
X91800000Y-50635000D01*
X91800000Y-49175000D02*
X94600000Y-49175000D01*
X94600000Y-49175000D02*
X94600000Y-50635000D01*
X94740000Y-53276000D02*
X95567000Y-53276000D01*
X95300000Y-49175000D02*
X95300000Y-51486000D01*
X95300000Y-49175000D02*
X98100000Y-49175000D01*
X95300000Y-52864000D02*
X95300000Y-52925000D01*
X95300000Y-52925000D02*
X95301000Y-52925000D01*
X97834000Y-53276000D02*
X99010000Y-53276000D01*
X98100000Y-49175000D02*
X98100000Y-51486000D01*
X98100000Y-52864000D02*
X98100000Y-52925000D01*
X98100000Y-52925000D02*
X98100000Y-52925000D01*
X99010000Y-48415000D02*
X99010000Y-56835000D01*
X92202110Y-50645566D02*
G75*
G02*
X94198000Y-50644000I997890J70566D01*
G01*
X95760085Y-50917233D02*
G75*
G02*
X97640000Y-50917000I939915J342233D01*
G01*
%LPC*%
D16*
X96010000Y-98669500D03*
D17*
X94740000Y-102860500D03*
X93470000Y-98669500D03*
X92200000Y-102860500D03*
X90930000Y-98669500D03*
X89660000Y-102860500D03*
X88390000Y-98669500D03*
D18*
X175240000Y-52167500D03*
D19*
X172700000Y-49627500D03*
X172700000Y-54707500D03*
X177780000Y-49627500D03*
X177780000Y-54707500D03*
D20*
X78400000Y-121900000D03*
X191400000Y-121900000D03*
X78400000Y-62900000D03*
X191400000Y-62900000D03*
D21*
X170370000Y-79500000D03*
X140230000Y-79500000D03*
D22*
X150440000Y-75420000D03*
D23*
X154200000Y-73250000D03*
D24*
X158480000Y-74000000D03*
D25*
X161270000Y-77330000D03*
D26*
X161270000Y-81670000D03*
D27*
X158480000Y-85000000D03*
D23*
X154200000Y-85750000D03*
D28*
X150440000Y-83580000D03*
D29*
X182225000Y-68725000D03*
D30*
X182225000Y-70175000D03*
D31*
X185350000Y-74900000D03*
X182250000Y-74900000D03*
D32*
X182050000Y-62775000D03*
X186350000Y-62775000D03*
D31*
X142470000Y-110590000D03*
X145570000Y-110590000D03*
D33*
X145540000Y-113070000D03*
X145540000Y-116170000D03*
D34*
X152820000Y-110590000D03*
X149720000Y-110590000D03*
D35*
X156325000Y-118075000D03*
D36*
X152825000Y-118075000D03*
D34*
X154750000Y-62700000D03*
X157850000Y-62700000D03*
D37*
X85550000Y-73550000D03*
X85550000Y-79650000D03*
X120850000Y-73500000D03*
X120850000Y-79600000D03*
D38*
X104600000Y-114537500D03*
X104600000Y-111412500D03*
D37*
X115100000Y-73500000D03*
X115100000Y-79600000D03*
D39*
X80200000Y-52175000D03*
D35*
X83700000Y-52175000D03*
D31*
X99150000Y-93110500D03*
X96050000Y-93110500D03*
D40*
X169062500Y-102875000D03*
X172187500Y-102875000D03*
X169062500Y-107375000D03*
X172187500Y-107375000D03*
D37*
X85550000Y-64050000D03*
X85550000Y-70150000D03*
X109350000Y-73500000D03*
X109350000Y-79600000D03*
X109350000Y-64000000D03*
X109350000Y-70100000D03*
X120850000Y-64000000D03*
X120850000Y-70100000D03*
D39*
X172500000Y-118145000D03*
D35*
X176000000Y-118145000D03*
D41*
X182412500Y-98375000D03*
X179287500Y-98375000D03*
D39*
X119850000Y-52170000D03*
D35*
X123350000Y-52170000D03*
D37*
X91300000Y-64050000D03*
X91300000Y-70150000D03*
D31*
X91850000Y-93169500D03*
X88750000Y-93169500D03*
D40*
X147337500Y-62700000D03*
X150462500Y-62700000D03*
D31*
X143825000Y-62750000D03*
X140725000Y-62750000D03*
D37*
X115100000Y-64000000D03*
X115100000Y-70100000D03*
D39*
X131450000Y-118145000D03*
D35*
X134950000Y-118145000D03*
D42*
X110450000Y-103812500D03*
X110450000Y-106937500D03*
D41*
X182412500Y-107375000D03*
X179287500Y-107375000D03*
D42*
X105950000Y-103812500D03*
X105950000Y-106937500D03*
X101450000Y-103812500D03*
X101450000Y-106937500D03*
D34*
X165325000Y-62800000D03*
X168425000Y-62800000D03*
D39*
X106850000Y-52170000D03*
D35*
X110350000Y-52170000D03*
D43*
X172225000Y-59725000D03*
X172225000Y-62825000D03*
D38*
X100100000Y-114537500D03*
X100100000Y-111412500D03*
X95600000Y-114537500D03*
X95600000Y-111412500D03*
D34*
X154700000Y-96200000D03*
X157800000Y-96200000D03*
D44*
X178175000Y-62800000D03*
D45*
X176725000Y-62800000D03*
D41*
X182412500Y-102875000D03*
X179287500Y-102875000D03*
D40*
X169062500Y-98375000D03*
X172187500Y-98375000D03*
D37*
X120850000Y-83000000D03*
X120850000Y-89100000D03*
X115100000Y-83000000D03*
X115100000Y-89100000D03*
X109350000Y-83000000D03*
X109350000Y-89100000D03*
X91300000Y-73550000D03*
X91300000Y-79650000D03*
D43*
X161300000Y-59700000D03*
X161300000Y-62800000D03*
D35*
X190292500Y-52167500D03*
D36*
X186792500Y-52167500D03*
D39*
X93200000Y-52175000D03*
D35*
X96700000Y-52175000D03*
D20*
X164000000Y-106000000D03*
X139000000Y-51000000D03*
X164000000Y-51000000D03*
X139000000Y-106000000D03*
D46*
X172500000Y-92950000D02*
X172500000Y-118145000D01*
X158760000Y-85280000D02*
X164830000Y-85280000D01*
X164830000Y-85280000D02*
X172500000Y-92950000D01*
X178975000Y-78025000D02*
X178975000Y-115170000D01*
X158980000Y-73500000D02*
X174450000Y-73500000D01*
X174450000Y-73500000D02*
X178975000Y-78025000D01*
X178975000Y-115170000D02*
X176000000Y-118145000D01*
X113000000Y-63650000D02*
X117100000Y-63650000D01*
X115100000Y-61500000D02*
X115100000Y-54300000D01*
X115100000Y-54170000D02*
X113100000Y-52170000D01*
X113100000Y-52170000D02*
X110350000Y-52170000D01*
X115100000Y-54270000D02*
X117200000Y-52170000D01*
X108700000Y-63650000D02*
X113000000Y-63650000D01*
X117100000Y-63650000D02*
X121500000Y-63650000D01*
X117200000Y-52170000D02*
X119850000Y-52170000D01*
X115050000Y-61600000D02*
X117100000Y-63650000D01*
X115050000Y-61600000D02*
X113000000Y-63650000D01*
X115045000Y-52170000D02*
X113100000Y-52170000D01*
X115155000Y-52170000D02*
X117200000Y-52170000D01*
X134950000Y-118145000D02*
X134950000Y-112350000D01*
X134950000Y-112350000D02*
X129869500Y-107269500D01*
X129869500Y-107269500D02*
X111900000Y-107269500D01*
X92200000Y-102860500D02*
X92200000Y-105900000D01*
X93569500Y-107269500D02*
X113040000Y-107269500D01*
X92200000Y-105900000D02*
X93569500Y-107269500D01*
X109350000Y-80400000D02*
X109350000Y-82200000D01*
X109350000Y-70900000D02*
X109350000Y-72700000D01*
X115100000Y-80400000D02*
X115100000Y-82200000D01*
X115100000Y-70900000D02*
X115100000Y-72700000D01*
X120850000Y-80400000D02*
X120850000Y-82200000D01*
X120850000Y-70900000D02*
X120850000Y-72700000D01*
X84900000Y-63700000D02*
X86500000Y-63700000D01*
X88400000Y-54275000D02*
X86300000Y-52175000D01*
X88400000Y-54275000D02*
X88400000Y-61600000D01*
X90400000Y-63700000D02*
X91900000Y-63700000D01*
X88400000Y-61700000D02*
X90400000Y-63700000D01*
X86500000Y-63700000D02*
X90400000Y-63700000D01*
X86000000Y-52175000D02*
X88400000Y-52175000D01*
X88400000Y-54275000D02*
X90500000Y-52175000D01*
X88400000Y-61700000D02*
X86500000Y-63600000D01*
X83700000Y-52175000D02*
X86000000Y-52175000D01*
X85550000Y-72750000D02*
X85550000Y-70950000D01*
X91300000Y-72750000D02*
X91300000Y-70950000D01*
X89661392Y-102861892D02*
X89661392Y-107390892D01*
X131450000Y-118145000D02*
X131450000Y-114850000D01*
X131450000Y-114850000D02*
X127669500Y-111069500D01*
X89661392Y-107390892D02*
X93340000Y-111069500D01*
X93340000Y-111069500D02*
X112940000Y-111069500D01*
X127669500Y-111069500D02*
X112940000Y-111069500D01*
X113300000Y-89450000D02*
X108700000Y-89450000D01*
X115150000Y-91300000D02*
X117000000Y-89450000D01*
X150420000Y-83580000D02*
X136900000Y-97100000D01*
X115100000Y-91250000D02*
X113300000Y-89450000D01*
X118700000Y-97100000D02*
X115100000Y-93500000D01*
X115100000Y-93500000D02*
X115100000Y-91300000D01*
X117000000Y-89450000D02*
X113300000Y-89450000D01*
X136900000Y-97100000D02*
X118700000Y-97100000D01*
X121500000Y-89450000D02*
X117000000Y-89450000D01*
X88400000Y-80000000D02*
X88400000Y-81900000D01*
X88400000Y-81900000D02*
X90300000Y-80000000D01*
X84900000Y-80000000D02*
X86400000Y-80000000D01*
X88400000Y-93230500D02*
X88400000Y-81900000D01*
X88390000Y-98669500D02*
X88390000Y-93240500D01*
X88400000Y-80000000D02*
X91900000Y-80000000D01*
X86400000Y-80000000D02*
X88400000Y-80000000D01*
X88400000Y-81900000D02*
X86500000Y-80000000D01*
X87500000Y-52175000D02*
X93200000Y-52175000D01*
%LPD*%
M02*
