G04 #@! TF.GenerationSoftware,KiCad,Pcbnew,9.0.0*
G04 #@! TF.CreationDate,2025-03-21T23:08:49+01:00*
G04 #@! TF.ProjectId,QCMAmp,51434d41-6d70-42e6-9b69-6361645f7063,rev?*
G04 #@! TF.SameCoordinates,Original*
G04 #@! TF.FileFunction,Soldermask,Top*
G04 #@! TF.FilePolarity,Negative*
%FSLAX46Y46*%
G04 Gerber Fmt 4.6, Leading zero omitted, Abs format (unit mm)*
G04 Created by KiCad (PCBNEW 9.0.0) date 2025-03-21 23:08:49*
%MOMM*%
%LPD*%
G01*
G04 APERTURE LIST*
G04 Aperture macros list*
%AMRoundRect*
0 Rectangle with rounded corners*
0 $1 Rounding radius*
0 $2 $3 $4 $5 $6 $7 $8 $9 X,Y pos of 4 corners*
0 Add a 4 corners polygon primitive as box body*
4,1,4,$2,$3,$4,$5,$6,$7,$8,$9,$2,$3,0*
0 Add four circle primitives for the rounded corners*
1,1,$1+$1,$2,$3*
1,1,$1+$1,$4,$5*
1,1,$1+$1,$6,$7*
1,1,$1+$1,$8,$9*
0 Add four rect primitives between the rounded corners*
20,1,$1+$1,$2,$3,$4,$5,0*
20,1,$1+$1,$4,$5,$6,$7,0*
20,1,$1+$1,$6,$7,$8,$9,0*
20,1,$1+$1,$8,$9,$2,$3,0*%
%AMHorizOval*
0 Thick line with rounded ends*
0 $1 width*
0 $2 $3 position (X,Y) of the first rounded end (center of the circle)*
0 $4 $5 position (X,Y) of the second rounded end (center of the circle)*
0 Add line between two ends*
20,1,$1,$2,$3,$4,$5,0*
0 Add two circle primitives to create the rounded ends*
1,1,$1,$2,$3*
1,1,$1,$4,$5*%
%AMFreePoly0*
4,1,6,1.000000,0.000000,0.500000,-0.750000,-0.500000,-0.750000,-0.500000,0.750000,0.500000,0.750000,1.000000,0.000000,1.000000,0.000000,$1*%
%AMFreePoly1*
4,1,6,0.500000,-0.750000,-0.650000,-0.750000,-0.150000,0.000000,-0.650000,0.750000,0.500000,0.750000,0.500000,-0.750000,0.500000,-0.750000,$1*%
G04 Aperture macros list end*
%ADD10R,1.524000X1.524000*%
%ADD11C,1.524000*%
%ADD12C,2.050000*%
%ADD13C,2.250000*%
%ADD14C,3.200000*%
%ADD15C,6.240000*%
%ADD16HorizOval,3.500000X-0.250000X0.433013X0.250000X-0.433013X0*%
%ADD17O,3.500000X4.500000*%
%ADD18HorizOval,3.500000X0.321394X0.383022X-0.321394X-0.383022X0*%
%ADD19HorizOval,3.500000X0.469846X0.171010X-0.469846X-0.171010X0*%
%ADD20HorizOval,3.500000X-0.482963X0.129410X0.482963X-0.129410X0*%
%ADD21HorizOval,3.500000X-0.321394X0.383022X0.321394X-0.383022X0*%
%ADD22HorizOval,3.500000X0.250000X0.433013X-0.250000X-0.433013X0*%
%ADD23FreePoly0,270.000000*%
%ADD24FreePoly1,270.000000*%
%ADD25RoundRect,0.250000X0.400000X0.625000X-0.400000X0.625000X-0.400000X-0.625000X0.400000X-0.625000X0*%
%ADD26RoundRect,0.250000X-1.000000X-0.900000X1.000000X-0.900000X1.000000X0.900000X-1.000000X0.900000X0*%
%ADD27RoundRect,0.250000X0.625000X-0.400000X0.625000X0.400000X-0.625000X0.400000X-0.625000X-0.400000X0*%
%ADD28RoundRect,0.250000X-0.400000X-0.625000X0.400000X-0.625000X0.400000X0.625000X-0.400000X0.625000X0*%
%ADD29C,2.600000*%
%ADD30RoundRect,0.250000X-1.050000X-1.050000X1.050000X-1.050000X1.050000X1.050000X-1.050000X1.050000X0*%
%ADD31RoundRect,0.249999X-1.425001X0.450001X-1.425001X-0.450001X1.425001X-0.450001X1.425001X0.450001X0*%
%ADD32RoundRect,0.250000X0.650000X-0.412500X0.650000X0.412500X-0.650000X0.412500X-0.650000X-0.412500X0*%
%ADD33R,2.600000X2.600000*%
%ADD34RoundRect,0.250000X-0.412500X-0.650000X0.412500X-0.650000X0.412500X0.650000X-0.412500X0.650000X0*%
%ADD35RoundRect,0.250000X0.412500X0.650000X-0.412500X0.650000X-0.412500X-0.650000X0.412500X-0.650000X0*%
%ADD36RoundRect,0.250000X-0.650000X0.412500X-0.650000X-0.412500X0.650000X-0.412500X0.650000X0.412500X0*%
%ADD37RoundRect,0.250000X-0.625000X0.400000X-0.625000X-0.400000X0.625000X-0.400000X0.625000X0.400000X0*%
%ADD38FreePoly0,180.000000*%
%ADD39FreePoly1,180.000000*%
%ADD40C,2.000000*%
G04 APERTURE END LIST*
D10*
X96010000Y-98669500D03*
D11*
X94740000Y-102860500D03*
X93470000Y-98669500D03*
X92200000Y-102860500D03*
X90930000Y-98669500D03*
X89660000Y-102860500D03*
X88390000Y-98669500D03*
D12*
X175240000Y-52167500D03*
D13*
X172700000Y-49627500D03*
X172700000Y-54707500D03*
X177780000Y-49627500D03*
X177780000Y-54707500D03*
D14*
X78400000Y-121900000D03*
X191400000Y-121900000D03*
X78400000Y-62900000D03*
X191400000Y-62900000D03*
D15*
X170370000Y-79500000D03*
X140230000Y-79500000D03*
D16*
X150440000Y-75420000D03*
D17*
X154200000Y-73250000D03*
D18*
X158480000Y-74000000D03*
D19*
X161270000Y-77330000D03*
D20*
X161270000Y-81670000D03*
D21*
X158480000Y-85000000D03*
D17*
X154200000Y-85750000D03*
D22*
X150440000Y-83580000D03*
D23*
X182225000Y-68725000D03*
D24*
X182225000Y-70175000D03*
D25*
X185350000Y-74900000D03*
X182250000Y-74900000D03*
D26*
X182050000Y-62775000D03*
X186350000Y-62775000D03*
D25*
X142470000Y-110590000D03*
X145570000Y-110590000D03*
D27*
X145540000Y-113070000D03*
X145540000Y-116170000D03*
D28*
X152820000Y-110590000D03*
X149720000Y-110590000D03*
D29*
X156325000Y-118075000D03*
D30*
X152825000Y-118075000D03*
D28*
X154750000Y-62700000D03*
X157850000Y-62700000D03*
D31*
X85550000Y-73550000D03*
X85550000Y-79650000D03*
X120850000Y-73500000D03*
X120850000Y-79600000D03*
D32*
X104600000Y-114537500D03*
X104600000Y-111412500D03*
D31*
X115100000Y-73500000D03*
X115100000Y-79600000D03*
D33*
X80200000Y-52175000D03*
D29*
X83700000Y-52175000D03*
D25*
X99150000Y-93110500D03*
X96050000Y-93110500D03*
D34*
X169062500Y-102875000D03*
X172187500Y-102875000D03*
X169062500Y-107375000D03*
X172187500Y-107375000D03*
D31*
X85550000Y-64050000D03*
X85550000Y-70150000D03*
X109350000Y-73500000D03*
X109350000Y-79600000D03*
X109350000Y-64000000D03*
X109350000Y-70100000D03*
X120850000Y-64000000D03*
X120850000Y-70100000D03*
D33*
X172500000Y-118145000D03*
D29*
X176000000Y-118145000D03*
D35*
X182412500Y-98375000D03*
X179287500Y-98375000D03*
D33*
X119850000Y-52170000D03*
D29*
X123350000Y-52170000D03*
D31*
X91300000Y-64050000D03*
X91300000Y-70150000D03*
D25*
X91850000Y-93169500D03*
X88750000Y-93169500D03*
D34*
X147337500Y-62700000D03*
X150462500Y-62700000D03*
D25*
X143825000Y-62750000D03*
X140725000Y-62750000D03*
D31*
X115100000Y-64000000D03*
X115100000Y-70100000D03*
D33*
X131450000Y-118145000D03*
D29*
X134950000Y-118145000D03*
D36*
X110450000Y-103812500D03*
X110450000Y-106937500D03*
D35*
X182412500Y-107375000D03*
X179287500Y-107375000D03*
D36*
X105950000Y-103812500D03*
X105950000Y-106937500D03*
X101450000Y-103812500D03*
X101450000Y-106937500D03*
D28*
X165325000Y-62800000D03*
X168425000Y-62800000D03*
D33*
X106850000Y-52170000D03*
D29*
X110350000Y-52170000D03*
D37*
X172225000Y-59725000D03*
X172225000Y-62825000D03*
D32*
X100100000Y-114537500D03*
X100100000Y-111412500D03*
X95600000Y-114537500D03*
X95600000Y-111412500D03*
D28*
X154700000Y-96200000D03*
X157800000Y-96200000D03*
D38*
X178175000Y-62800000D03*
D39*
X176725000Y-62800000D03*
D35*
X182412500Y-102875000D03*
X179287500Y-102875000D03*
D34*
X169062500Y-98375000D03*
X172187500Y-98375000D03*
D31*
X120850000Y-83000000D03*
X120850000Y-89100000D03*
X115100000Y-83000000D03*
X115100000Y-89100000D03*
X109350000Y-83000000D03*
X109350000Y-89100000D03*
X91300000Y-73550000D03*
X91300000Y-79650000D03*
D37*
X161300000Y-59700000D03*
X161300000Y-62800000D03*
D29*
X190292500Y-52167500D03*
D30*
X186792500Y-52167500D03*
D33*
X93200000Y-52175000D03*
D29*
X96700000Y-52175000D03*
D14*
X164000000Y-106000000D03*
X139000000Y-51000000D03*
X164000000Y-51000000D03*
X139000000Y-106000000D03*
D40*
X172500000Y-92950000D02*
X172500000Y-118145000D01*
X158760000Y-85280000D02*
X164830000Y-85280000D01*
X164830000Y-85280000D02*
X172500000Y-92950000D01*
X178975000Y-78025000D02*
X178975000Y-115170000D01*
X158980000Y-73500000D02*
X174450000Y-73500000D01*
X174450000Y-73500000D02*
X178975000Y-78025000D01*
X178975000Y-115170000D02*
X176000000Y-118145000D01*
X113000000Y-63650000D02*
X117100000Y-63650000D01*
X115100000Y-61500000D02*
X115100000Y-54300000D01*
X115100000Y-54170000D02*
X113100000Y-52170000D01*
X113100000Y-52170000D02*
X110350000Y-52170000D01*
X115100000Y-54270000D02*
X117200000Y-52170000D01*
X108700000Y-63650000D02*
X113000000Y-63650000D01*
X117100000Y-63650000D02*
X121500000Y-63650000D01*
X117200000Y-52170000D02*
X119850000Y-52170000D01*
X115050000Y-61600000D02*
X117100000Y-63650000D01*
X115050000Y-61600000D02*
X113000000Y-63650000D01*
X115045000Y-52170000D02*
X113100000Y-52170000D01*
X115155000Y-52170000D02*
X117200000Y-52170000D01*
X134950000Y-118145000D02*
X134950000Y-112350000D01*
X134950000Y-112350000D02*
X129869500Y-107269500D01*
X129869500Y-107269500D02*
X111900000Y-107269500D01*
X92200000Y-102860500D02*
X92200000Y-105900000D01*
X93569500Y-107269500D02*
X113040000Y-107269500D01*
X92200000Y-105900000D02*
X93569500Y-107269500D01*
X109350000Y-80400000D02*
X109350000Y-82200000D01*
X109350000Y-70900000D02*
X109350000Y-72700000D01*
X115100000Y-80400000D02*
X115100000Y-82200000D01*
X115100000Y-70900000D02*
X115100000Y-72700000D01*
X120850000Y-80400000D02*
X120850000Y-82200000D01*
X120850000Y-70900000D02*
X120850000Y-72700000D01*
X84900000Y-63700000D02*
X86500000Y-63700000D01*
X88400000Y-54275000D02*
X86300000Y-52175000D01*
X88400000Y-54275000D02*
X88400000Y-61600000D01*
X90400000Y-63700000D02*
X91900000Y-63700000D01*
X88400000Y-61700000D02*
X90400000Y-63700000D01*
X86500000Y-63700000D02*
X90400000Y-63700000D01*
X86000000Y-52175000D02*
X88400000Y-52175000D01*
X88400000Y-54275000D02*
X90500000Y-52175000D01*
X88400000Y-61700000D02*
X86500000Y-63600000D01*
X83700000Y-52175000D02*
X86000000Y-52175000D01*
X85550000Y-72750000D02*
X85550000Y-70950000D01*
X91300000Y-72750000D02*
X91300000Y-70950000D01*
X89661392Y-102861892D02*
X89661392Y-107390892D01*
X131450000Y-118145000D02*
X131450000Y-114850000D01*
X131450000Y-114850000D02*
X127669500Y-111069500D01*
X89661392Y-107390892D02*
X93340000Y-111069500D01*
X93340000Y-111069500D02*
X112940000Y-111069500D01*
X127669500Y-111069500D02*
X112940000Y-111069500D01*
X113300000Y-89450000D02*
X108700000Y-89450000D01*
X115150000Y-91300000D02*
X117000000Y-89450000D01*
X150420000Y-83580000D02*
X136900000Y-97100000D01*
X115100000Y-91250000D02*
X113300000Y-89450000D01*
X118700000Y-97100000D02*
X115100000Y-93500000D01*
X115100000Y-93500000D02*
X115100000Y-91300000D01*
X117000000Y-89450000D02*
X113300000Y-89450000D01*
X136900000Y-97100000D02*
X118700000Y-97100000D01*
X121500000Y-89450000D02*
X117000000Y-89450000D01*
X88400000Y-80000000D02*
X88400000Y-81900000D01*
X88400000Y-81900000D02*
X90300000Y-80000000D01*
X84900000Y-80000000D02*
X86400000Y-80000000D01*
X88400000Y-93230500D02*
X88400000Y-81900000D01*
X88390000Y-98669500D02*
X88390000Y-93240500D01*
X88400000Y-80000000D02*
X91900000Y-80000000D01*
X86400000Y-80000000D02*
X88400000Y-80000000D01*
X88400000Y-81900000D02*
X86500000Y-80000000D01*
X87500000Y-52175000D02*
X93200000Y-52175000D01*
M02*
