G04 #@! TF.GenerationSoftware,KiCad,Pcbnew,9.0.0*
G04 #@! TF.CreationDate,2025-03-21T23:08:49+01:00*
G04 #@! TF.ProjectId,QCMAmp,51434d41-6d70-42e6-9b69-6361645f7063,rev?*
G04 #@! TF.SameCoordinates,Original*
G04 #@! TF.FileFunction,Legend,Bot*
G04 #@! TF.FilePolarity,Positive*
%FSLAX46Y46*%
G04 Gerber Fmt 4.6, Leading zero omitted, Abs format (unit mm)*
G04 Created by KiCad (PCBNEW 9.0.0) date 2025-03-21 23:08:49*
%MOMM*%
%LPD*%
G01*
G04 APERTURE LIST*
G04 Aperture macros list*
%AMRoundRect*
0 Rectangle with rounded corners*
0 $1 Rounding radius*
0 $2 $3 $4 $5 $6 $7 $8 $9 X,Y pos of 4 corners*
0 Add a 4 corners polygon primitive as box body*
4,1,4,$2,$3,$4,$5,$6,$7,$8,$9,$2,$3,0*
0 Add four circle primitives for the rounded corners*
1,1,$1+$1,$2,$3*
1,1,$1+$1,$4,$5*
1,1,$1+$1,$6,$7*
1,1,$1+$1,$8,$9*
0 Add four rect primitives between the rounded corners*
20,1,$1+$1,$2,$3,$4,$5,0*
20,1,$1+$1,$4,$5,$6,$7,0*
20,1,$1+$1,$6,$7,$8,$9,0*
20,1,$1+$1,$8,$9,$2,$3,0*%
%AMHorizOval*
0 Thick line with rounded ends*
0 $1 width*
0 $2 $3 position (X,Y) of the first rounded end (center of the circle)*
0 $4 $5 position (X,Y) of the second rounded end (center of the circle)*
0 Add line between two ends*
20,1,$1,$2,$3,$4,$5,0*
0 Add two circle primitives to create the rounded ends*
1,1,$1,$2,$3*
1,1,$1,$4,$5*%
G04 Aperture macros list end*
%ADD10C,0.150000*%
%ADD11R,1.524000X1.524000*%
%ADD12C,1.524000*%
%ADD13C,2.050000*%
%ADD14C,2.250000*%
%ADD15C,3.200000*%
%ADD16C,6.240000*%
%ADD17HorizOval,3.500000X-0.250000X0.433013X0.250000X-0.433013X0*%
%ADD18O,3.500000X4.500000*%
%ADD19HorizOval,3.500000X0.321394X0.383022X-0.321394X-0.383022X0*%
%ADD20HorizOval,3.500000X0.469846X0.171010X-0.469846X-0.171010X0*%
%ADD21HorizOval,3.500000X-0.482963X0.129410X0.482963X-0.129410X0*%
%ADD22HorizOval,3.500000X-0.321394X0.383022X0.321394X-0.383022X0*%
%ADD23HorizOval,3.500000X0.250000X0.433013X-0.250000X-0.433013X0*%
%ADD24C,2.600000*%
%ADD25RoundRect,0.250000X-1.050000X-1.050000X1.050000X-1.050000X1.050000X1.050000X-1.050000X1.050000X0*%
%ADD26R,2.600000X2.600000*%
G04 APERTURE END LIST*
D10*
X75669819Y-86097493D02*
X76384104Y-86097493D01*
X76384104Y-86097493D02*
X76526961Y-86049874D01*
X76526961Y-86049874D02*
X76622200Y-85954636D01*
X76622200Y-85954636D02*
X76669819Y-85811779D01*
X76669819Y-85811779D02*
X76669819Y-85716541D01*
X76669819Y-87049874D02*
X76669819Y-86573684D01*
X76669819Y-86573684D02*
X75669819Y-86573684D01*
X76574580Y-87954636D02*
X76622200Y-87907017D01*
X76622200Y-87907017D02*
X76669819Y-87764160D01*
X76669819Y-87764160D02*
X76669819Y-87668922D01*
X76669819Y-87668922D02*
X76622200Y-87526065D01*
X76622200Y-87526065D02*
X76526961Y-87430827D01*
X76526961Y-87430827D02*
X76431723Y-87383208D01*
X76431723Y-87383208D02*
X76241247Y-87335589D01*
X76241247Y-87335589D02*
X76098390Y-87335589D01*
X76098390Y-87335589D02*
X75907914Y-87383208D01*
X75907914Y-87383208D02*
X75812676Y-87430827D01*
X75812676Y-87430827D02*
X75717438Y-87526065D01*
X75717438Y-87526065D02*
X75669819Y-87668922D01*
X75669819Y-87668922D02*
X75669819Y-87764160D01*
X75669819Y-87764160D02*
X75717438Y-87907017D01*
X75717438Y-87907017D02*
X75765057Y-87954636D01*
X75669819Y-88668922D02*
X76384104Y-88668922D01*
X76384104Y-88668922D02*
X76526961Y-88621303D01*
X76526961Y-88621303D02*
X76622200Y-88526065D01*
X76622200Y-88526065D02*
X76669819Y-88383208D01*
X76669819Y-88383208D02*
X76669819Y-88287970D01*
X76669819Y-89621303D02*
X76669819Y-89145113D01*
X76669819Y-89145113D02*
X75669819Y-89145113D01*
X76574580Y-90526065D02*
X76622200Y-90478446D01*
X76622200Y-90478446D02*
X76669819Y-90335589D01*
X76669819Y-90335589D02*
X76669819Y-90240351D01*
X76669819Y-90240351D02*
X76622200Y-90097494D01*
X76622200Y-90097494D02*
X76526961Y-90002256D01*
X76526961Y-90002256D02*
X76431723Y-89954637D01*
X76431723Y-89954637D02*
X76241247Y-89907018D01*
X76241247Y-89907018D02*
X76098390Y-89907018D01*
X76098390Y-89907018D02*
X75907914Y-89954637D01*
X75907914Y-89954637D02*
X75812676Y-90002256D01*
X75812676Y-90002256D02*
X75717438Y-90097494D01*
X75717438Y-90097494D02*
X75669819Y-90240351D01*
X75669819Y-90240351D02*
X75669819Y-90335589D01*
X75669819Y-90335589D02*
X75717438Y-90478446D01*
X75717438Y-90478446D02*
X75765057Y-90526065D01*
X75669819Y-91240351D02*
X76384104Y-91240351D01*
X76384104Y-91240351D02*
X76526961Y-91192732D01*
X76526961Y-91192732D02*
X76622200Y-91097494D01*
X76622200Y-91097494D02*
X76669819Y-90954637D01*
X76669819Y-90954637D02*
X76669819Y-90859399D01*
X76669819Y-92192732D02*
X76669819Y-91716542D01*
X76669819Y-91716542D02*
X75669819Y-91716542D01*
X76574580Y-93097494D02*
X76622200Y-93049875D01*
X76622200Y-93049875D02*
X76669819Y-92907018D01*
X76669819Y-92907018D02*
X76669819Y-92811780D01*
X76669819Y-92811780D02*
X76622200Y-92668923D01*
X76622200Y-92668923D02*
X76526961Y-92573685D01*
X76526961Y-92573685D02*
X76431723Y-92526066D01*
X76431723Y-92526066D02*
X76241247Y-92478447D01*
X76241247Y-92478447D02*
X76098390Y-92478447D01*
X76098390Y-92478447D02*
X75907914Y-92526066D01*
X75907914Y-92526066D02*
X75812676Y-92573685D01*
X75812676Y-92573685D02*
X75717438Y-92668923D01*
X75717438Y-92668923D02*
X75669819Y-92811780D01*
X75669819Y-92811780D02*
X75669819Y-92907018D01*
X75669819Y-92907018D02*
X75717438Y-93049875D01*
X75717438Y-93049875D02*
X75765057Y-93097494D01*
X75669819Y-93811780D02*
X76384104Y-93811780D01*
X76384104Y-93811780D02*
X76526961Y-93764161D01*
X76526961Y-93764161D02*
X76622200Y-93668923D01*
X76622200Y-93668923D02*
X76669819Y-93526066D01*
X76669819Y-93526066D02*
X76669819Y-93430828D01*
X76669819Y-94764161D02*
X76669819Y-94287971D01*
X76669819Y-94287971D02*
X75669819Y-94287971D01*
X76574580Y-95668923D02*
X76622200Y-95621304D01*
X76622200Y-95621304D02*
X76669819Y-95478447D01*
X76669819Y-95478447D02*
X76669819Y-95383209D01*
X76669819Y-95383209D02*
X76622200Y-95240352D01*
X76622200Y-95240352D02*
X76526961Y-95145114D01*
X76526961Y-95145114D02*
X76431723Y-95097495D01*
X76431723Y-95097495D02*
X76241247Y-95049876D01*
X76241247Y-95049876D02*
X76098390Y-95049876D01*
X76098390Y-95049876D02*
X75907914Y-95097495D01*
X75907914Y-95097495D02*
X75812676Y-95145114D01*
X75812676Y-95145114D02*
X75717438Y-95240352D01*
X75717438Y-95240352D02*
X75669819Y-95383209D01*
X75669819Y-95383209D02*
X75669819Y-95478447D01*
X75669819Y-95478447D02*
X75717438Y-95621304D01*
X75717438Y-95621304D02*
X75765057Y-95668923D01*
%LPC*%
D11*
X96010000Y-98669500D03*
D12*
X94740000Y-102860500D03*
X93470000Y-98669500D03*
X92200000Y-102860500D03*
X90930000Y-98669500D03*
X89660000Y-102860500D03*
X88390000Y-98669500D03*
D13*
X175240000Y-52167500D03*
D14*
X172700000Y-49627500D03*
X172700000Y-54707500D03*
X177780000Y-49627500D03*
X177780000Y-54707500D03*
D15*
X78400000Y-121900000D03*
X191400000Y-121900000D03*
X78400000Y-62900000D03*
X191400000Y-62900000D03*
D16*
X170370000Y-79500000D03*
X140230000Y-79500000D03*
D17*
X150440000Y-75420000D03*
D18*
X154200000Y-73250000D03*
D19*
X158480000Y-74000000D03*
D20*
X161270000Y-77330000D03*
D21*
X161270000Y-81670000D03*
D22*
X158480000Y-85000000D03*
D18*
X154200000Y-85750000D03*
D23*
X150440000Y-83580000D03*
D24*
X156325000Y-118075000D03*
D25*
X152825000Y-118075000D03*
D26*
X80200000Y-52175000D03*
D24*
X83700000Y-52175000D03*
D26*
X172500000Y-118145000D03*
D24*
X176000000Y-118145000D03*
D26*
X119850000Y-52170000D03*
D24*
X123350000Y-52170000D03*
D26*
X131450000Y-118145000D03*
D24*
X134950000Y-118145000D03*
D26*
X106850000Y-52170000D03*
D24*
X110350000Y-52170000D03*
X190292500Y-52167500D03*
D25*
X186792500Y-52167500D03*
D26*
X93200000Y-52175000D03*
D24*
X96700000Y-52175000D03*
D15*
X164000000Y-106000000D03*
X139000000Y-51000000D03*
X164000000Y-51000000D03*
X139000000Y-106000000D03*
%LPD*%
M02*
